<svg xmlns="http://www.w3.org/2000/svg" xmlns:xlink="http://www.w3.org/1999/xlink" viewBox="0 0 482 486.79"><defs><style>.cls-1{fill:url(#White_Black);}.cls-2{fill:url(#White_Black-2);}.cls-3{isolation:isolate;}.cls-4{mix-blend-mode:multiply;}.cls-5,.cls-62{fill:#fff;}.cls-5{opacity:0;}.cls-57,.cls-6{fill:#fefefe;}.cls-6{opacity:0.02;}.cls-7{fill:#fcfcfc;opacity:0.04;}.cls-8{fill:#fbfbfb;opacity:0.06;}.cls-9{fill:#f9f9f9;opacity:0.08;}.cls-10,.cls-84{fill:#f8f8f8;}.cls-10{opacity:0.1;}.cls-11{fill:#f7f7f7;opacity:0.12;}.cls-12{fill:#f5f5f5;opacity:0.14;}.cls-13{fill:#f4f4f4;opacity:0.16;}.cls-14,.cls-60{fill:#f2f2f2;}.cls-14{opacity:0.18;}.cls-15,.cls-87{fill:#f1f1f1;}.cls-15{opacity:0.2;}.cls-16,.cls-88{fill:#efefef;}.cls-16{opacity:0.22;}.cls-17{fill:#eee;opacity:0.24;}.cls-18{fill:#ededed;opacity:0.25;}.cls-19{fill:#ebebeb;opacity:0.27;}.cls-20,.cls-74,.cls-90{fill:#eaeaea;}.cls-20{opacity:0.29;}.cls-21,.cls-91{fill:#e8e8e8;}.cls-21{opacity:0.31;}.cls-22{fill:#e7e7e7;opacity:0.33;}.cls-23{fill:#e6e6e6;opacity:0.35;}.cls-24{fill:#e4e4e4;opacity:0.37;}.cls-25,.cls-93{fill:#e3e3e3;}.cls-25{opacity:0.39;}.cls-26,.cls-94{fill:#e1e1e1;}.cls-26{opacity:0.41;}.cls-27{fill:#e0e0e0;opacity:0.43;}.cls-28{fill:#dfdfdf;opacity:0.45;}.cls-29,.cls-67{fill:#ddd;}.cls-29{opacity:0.47;}.cls-30,.cls-96{fill:#dcdcdc;}.cls-30{opacity:0.49;}.cls-31,.cls-97{fill:#dadada;}.cls-31{opacity:0.51;}.cls-32{fill:#d9d9d9;opacity:0.53;}.cls-33{fill:#d7d7d7;opacity:0.55;}.cls-34{fill:#d6d6d6;opacity:0.57;}.cls-35,.cls-99{fill:#d5d5d5;}.cls-35{opacity:0.59;}.cls-100,.cls-36{fill:#d3d3d3;}.cls-36{opacity:0.61;}.cls-37{fill:#d2d2d2;opacity:0.63;}.cls-38{fill:#d0d0d0;opacity:0.65;}.cls-39{fill:#cfcfcf;opacity:0.67;}.cls-102,.cls-40{fill:#cecece;}.cls-40{opacity:0.69;}.cls-103,.cls-41{fill:#ccc;}.cls-41{opacity:0.71;}.cls-42{fill:#cbcbcb;opacity:0.73;}.cls-43{fill:#c9c9c9;opacity:0.75;}.cls-44{fill:#c8c8c8;opacity:0.76;}.cls-105,.cls-45{fill:#c7c7c7;}.cls-45{opacity:0.78;}.cls-106,.cls-46{fill:#c5c5c5;}.cls-46{opacity:0.8;}.cls-47{fill:#c4c4c4;opacity:0.82;}.cls-48{fill:#c2c2c2;opacity:0.84;}.cls-49{fill:#c1c1c1;opacity:0.86;}.cls-50{fill:#bfbfbf;opacity:0.88;}.cls-109,.cls-51{fill:#bebebe;}.cls-51{opacity:0.9;}.cls-52{fill:#bdbdbd;opacity:0.92;}.cls-53{fill:#bbb;opacity:0.94;}.cls-54{fill:#bababa;opacity:0.96;}.cls-55{fill:#b8b8b8;opacity:0.98;}.cls-56{fill:#b7b7b7;}.cls-58{fill:url(#linear-gradient);}.cls-59{fill:url(#linear-gradient-2);}.cls-61{fill:url(#linear-gradient-3);}.cls-63{opacity:0.85;fill:url(#linear-gradient-4);}.cls-64{opacity:0.65;fill:url(#linear-gradient-5);}.cls-65{fill:url(#linear-gradient-6);}.cls-66{fill:url(#linear-gradient-7);}.cls-68{fill:url(#linear-gradient-8);}.cls-69{fill:#008ff9;}.cls-70{fill:#fdf7fb;}.cls-71{opacity:0.2;}.cls-72{fill:#fefeff;}.cls-73{fill:url(#linear-gradient-9);}.cls-75{opacity:0.75;}.cls-76{fill:url(#linear-gradient-10);}.cls-77{fill:url(#linear-gradient-11);}.cls-78{fill:url(#linear-gradient-12);}.cls-79{fill:url(#linear-gradient-13);}.cls-80{fill:url(#linear-gradient-14);}.cls-81{fill:url(#linear-gradient-15);}.cls-82{fill:#fdfdfd;opacity:0.03;}.cls-83{fill:#fafafa;opacity:0.06;}.cls-84{opacity:0.1;}.cls-85{fill:#f6f6f6;opacity:0.13;}.cls-86{fill:#f3f3f3;opacity:0.16;}.cls-87{opacity:0.19;}.cls-88{opacity:0.23;}.cls-89{fill:#ececec;opacity:0.26;}.cls-90{opacity:0.29;}.cls-91{opacity:0.32;}.cls-92{fill:#e5e5e5;opacity:0.35;}.cls-93{opacity:0.39;}.cls-94{opacity:0.42;}.cls-95{fill:#dedede;opacity:0.45;}.cls-96{opacity:0.48;}.cls-97{opacity:0.52;}.cls-98{fill:#d8d8d8;opacity:0.55;}.cls-99{opacity:0.58;}.cls-100{opacity:0.61;}.cls-101{fill:#d1d1d1;opacity:0.65;}.cls-102{opacity:0.68;}.cls-103{opacity:0.71;}.cls-104{fill:#cacaca;opacity:0.74;}.cls-105{opacity:0.77;}.cls-106{opacity:0.81;}.cls-107{fill:#c3c3c3;opacity:0.84;}.cls-108{fill:silver;opacity:0.87;}.cls-109{opacity:0.9;}.cls-110{fill:#bcbcbc;opacity:0.94;}.cls-111{fill:#b9b9b9;opacity:0.97;}.cls-112{fill:url(#White_Black-3);}.cls-113{fill:url(#White_Black-4);}.cls-114{fill:url(#White_Black-5);}.cls-115{fill:url(#White_Black-6);}.cls-116{clip-path:url(#clip-path);}.cls-117{fill:url(#White_Black-9);}.cls-118{clip-path:url(#clip-path-2);}.cls-119{fill:url(#White_Black-12);}.cls-120{fill:url(#White_Black-13);}.cls-121{fill:url(#White_Black-14);}.cls-122{fill:url(#White_Black-15);}.cls-123{fill:url(#White_Black-16);}.cls-124{fill:url(#White_Black-17);}.cls-125{fill:url(#White_Black-18);}.cls-126{fill:url(#White_Black-19);}.cls-127{fill:url(#White_Black-20);}.cls-128{fill:url(#White_Black-21);}.cls-129{fill:url(#White_Black-22);}.cls-130{fill:url(#White_Black-23);}.cls-131{fill:url(#linear-gradient-16);}</style><linearGradient id="White_Black" x1="1201.47" y1="180.95" x2="1251.8" y2="328.67" gradientTransform="matrix(-1, 0, 0, 1, 1238.21, 0)" gradientUnits="userSpaceOnUse"><stop offset="0" stop-color="#fff"></stop><stop offset="1" stop-color="#231f20"></stop></linearGradient><linearGradient id="White_Black-2" x1="1201.01" y1="181.11" x2="1251.35" y2="328.82" xlink:href="#White_Black"></linearGradient><linearGradient id="linear-gradient" x1="641.85" y1="397.24" x2="792.18" y2="146.45" gradientTransform="translate(-455.31)" gradientUnits="userSpaceOnUse"><stop offset="0" stop-color="#4095de"></stop><stop offset="1" stop-color="#19072d"></stop></linearGradient><linearGradient id="linear-gradient-2" x1="557.3" y1="622.98" x2="808.13" y2="84.57" gradientTransform="translate(-464.31 -7.91)" xlink:href="#linear-gradient"></linearGradient><linearGradient id="linear-gradient-3" x1="865.84" y1="180.05" x2="457.14" y2="523.52" xlink:href="#linear-gradient"></linearGradient><linearGradient id="linear-gradient-4" x1="660.15" y1="331.19" x2="830.19" y2="82.39" gradientTransform="translate(-464.31 -7.91)" xlink:href="#linear-gradient"></linearGradient><linearGradient id="linear-gradient-5" x1="758.06" y1="133.77" x2="645.34" y2="389.38" gradientTransform="translate(-464.31 -7.91)" xlink:href="#linear-gradient"></linearGradient><linearGradient id="linear-gradient-6" x1="193.21" y1="110.08" x2="-59.22" y2="191.21" gradientUnits="userSpaceOnUse"><stop offset="0" stop-color="#19072d"></stop><stop offset="0.47" stop-color="#2b4a81"></stop><stop offset="1" stop-color="#4095de"></stop></linearGradient><linearGradient id="linear-gradient-7" x1="-67.59" y1="224.7" x2="-71.77" y2="19.04" gradientTransform="matrix(-1, 0, 0, 1, 32.08, -7.91)" xlink:href="#linear-gradient"></linearGradient><linearGradient id="linear-gradient-8" x1="111.62" y1="195.38" x2="107.94" y2="219.31" gradientTransform="matrix(1, 0, 0, 1, 0, 0)" xlink:href="#linear-gradient"></linearGradient><linearGradient id="linear-gradient-9" x1="113.99" y1="158.97" x2="104.18" y2="211.61" gradientTransform="matrix(1, 0, 0, 1, 0, 0)" xlink:href="#linear-gradient"></linearGradient><linearGradient id="linear-gradient-10" x1="255.63" y1="89.96" x2="503.06" y2="217.44" gradientTransform="matrix(-1, 0, 0, 1, 701.01, 0)" gradientUnits="userSpaceOnUse"><stop offset="0" stop-color="#19072d"></stop><stop offset="1" stop-color="#4095de"></stop></linearGradient><linearGradient id="linear-gradient-11" x1="463.1" y1="205.63" x2="285.75" y2="103.03" xlink:href="#linear-gradient-10"></linearGradient><linearGradient id="linear-gradient-12" x1="104.04" y1="79.93" x2="192.44" y2="32.15" gradientTransform="matrix(1, 0, 0, 1, 0, 0)" xlink:href="#linear-gradient"></linearGradient><linearGradient id="linear-gradient-13" x1="161.36" y1="9.58" x2="158.73" y2="103.25" gradientTransform="matrix(1, 0, 0, 1, 0, 0)" xlink:href="#linear-gradient"></linearGradient><linearGradient id="linear-gradient-14" x1="486.34" y1="271.19" x2="383.4" y2="354.45" gradientUnits="userSpaceOnUse"><stop offset="0" stop-color="#fff"></stop><stop offset="0.28" stop-color="#dedcdb"></stop><stop offset="0.91" stop-color="#8b8480"></stop><stop offset="1" stop-color="#7e7772"></stop></linearGradient><linearGradient id="linear-gradient-15" x1="457.36" y1="255.38" x2="421.99" y2="395.22" gradientTransform="matrix(1, 0, 0, 1, 0, 0)" xlink:href="#linear-gradient"></linearGradient><linearGradient id="White_Black-3" x1="1178.78" y1="188.69" x2="1229.11" y2="336.4" xlink:href="#White_Black"></linearGradient><linearGradient id="White_Black-4" x1="1214.6" y1="176.48" x2="1264.94" y2="324.19" xlink:href="#White_Black"></linearGradient><linearGradient id="White_Black-5" x1="1201.75" y1="180.86" x2="1252.09" y2="328.57" gradientTransform="matrix(-1, 0, 0, 1, 1229.21, -7.91)" xlink:href="#White_Black"></linearGradient><linearGradient id="White_Black-6" x1="1201.66" y1="180.89" x2="1251.99" y2="328.6" gradientTransform="matrix(-1, 0, 0, 1, 1229.21, -7.91)" xlink:href="#White_Black"></linearGradient><clipPath id="clip-path" transform="translate(-9 -7.91)"><path class="cls-1" d="M26.52,203.32l6.84-4a2.28,2.28,0,0,0-.44.49l-6.84,4A2.28,2.28,0,0,1,26.52,203.32Z"></path></clipPath><linearGradient id="White_Black-9" x1="1201.29" y1="181.01" x2="1251.63" y2="328.73" gradientTransform="matrix(-1, 0, 0, 1, 1229.21, -7.91)" xlink:href="#White_Black"></linearGradient><clipPath id="clip-path-2" transform="translate(-9 -7.91)"><path class="cls-2" d="M27.35,202.67l6.84-4a3.88,3.88,0,0,0-.64.46l-6.84,4A3.89,3.89,0,0,1,27.35,202.67Z"></path></clipPath><linearGradient id="White_Black-12" x1="1194.49" y1="183.33" x2="1244.83" y2="331.05" xlink:href="#White_Black"></linearGradient><linearGradient id="White_Black-13" x1="1168.14" y1="192.31" x2="1218.48" y2="340.03" xlink:href="#White_Black"></linearGradient><linearGradient id="White_Black-14" x1="1211.43" y1="177.56" x2="1261.76" y2="325.27" xlink:href="#White_Black"></linearGradient><linearGradient id="White_Black-15" x1="1170.72" y1="191.43" x2="1221.06" y2="339.15" xlink:href="#White_Black"></linearGradient><linearGradient id="White_Black-16" x1="1204.35" y1="179.97" x2="1254.68" y2="327.69" xlink:href="#White_Black"></linearGradient><linearGradient id="White_Black-17" x1="1189.48" y1="185.04" x2="1239.82" y2="332.76" xlink:href="#White_Black"></linearGradient><linearGradient id="White_Black-18" x1="1172.95" y1="190.67" x2="1223.28" y2="338.39" xlink:href="#White_Black"></linearGradient><linearGradient id="White_Black-19" x1="1199.62" y1="181.59" x2="1249.95" y2="329.3" xlink:href="#White_Black"></linearGradient><linearGradient id="White_Black-20" x1="1166.64" y1="192.82" x2="1216.97" y2="340.54" xlink:href="#White_Black"></linearGradient><linearGradient id="White_Black-21" x1="1193.47" y1="183.68" x2="1243.81" y2="331.39" xlink:href="#White_Black"></linearGradient><linearGradient id="White_Black-22" x1="1185.85" y1="186.28" x2="1236.18" y2="333.99" gradientTransform="matrix(-1, 0, 0, 1, 1229.21, -7.91)" xlink:href="#White_Black"></linearGradient><linearGradient id="White_Black-23" x1="1179.54" y1="188.42" x2="1229.88" y2="336.14" xlink:href="#White_Black"></linearGradient><linearGradient id="linear-gradient-16" x1="43.55" y1="183.31" x2="20.97" y2="258.3" gradientTransform="matrix(1, 0, 0, 1, 0, 0)" xlink:href="#linear-gradient"></linearGradient></defs><title>iOS app development</title><g class="cls-3"><g id="Layer_1" data-name="Layer 1"><g class="cls-4"><path class="cls-5" d="M246.29,492,29.88,367c-7-4-6.13-11.11,2-15.78L190.93,259.4c8.09-4.67,20.32-5.18,27.33-1.13L434.67,383.21c7,4,6.13,11.11-2,15.78L273.62,490.84C265.53,495.51,253.3,496,246.29,492Z" transform="translate(-9 -7.91)"></path><path class="cls-6" d="M246.31,491.35,31,367c-7-4-6.09-11,2-15.69L191.06,260c8-4.64,20.22-5.15,27.18-1.13L433.6,383.22c7,4,6.09,11-2,15.69L273.49,490.23C265.45,494.87,253.28,495.38,246.31,491.35Z" transform="translate(-9 -7.91)"></path><path class="cls-7" d="M246.33,490.73,32,367C25.1,363,26,356,34,351.4l157.21-90.77c8-4.62,20.11-5.12,27-1.12l214.3,123.73c6.93,4,6.06,11-1.94,15.61L273.37,489.61C265.37,494.23,253.26,494.73,246.33,490.73Z" transform="translate(-9 -7.91)"></path><path class="cls-8" d="M246.35,490.11,33.11,367c-6.89-4-6-10.93,1.93-15.52l156.27-90.22c8-4.59,20-5.09,26.89-1.11L431.45,383.25c6.89,4,6,10.93-1.93,15.52L273.24,489C265.28,493.59,253.24,494.09,246.35,490.11Z" transform="translate(-9 -7.91)"></path><path class="cls-9" d="M246.37,489.49,34.18,367c-6.85-4-6-10.87,1.92-15.44l155.34-89.68c7.91-4.57,19.89-5.07,26.74-1.11L430.37,383.26c6.85,4,6,10.87-1.92,15.44L273.11,488.38C265.2,493,253.23,493.45,246.37,489.49Z" transform="translate(-9 -7.91)"></path><path class="cls-10" d="M246.39,488.87,35.26,367c-6.82-3.94-6-10.81,1.91-15.35l154.4-89.14c7.87-4.54,19.78-5,26.59-1.1l211.13,121.9c6.82,3.94,6,10.81-1.91,15.35L273,487.77C265.12,492.31,253.21,492.8,246.39,488.87Z" transform="translate(-9 -7.91)"></path><path class="cls-11" d="M246.41,488.25,36.33,367c-6.78-3.91-5.93-10.75,1.9-15.27l153.46-88.6c7.83-4.52,19.67-5,26.45-1.1L428.22,383.28c6.78,3.91,5.93,10.75-1.9,15.27l-153.46,88.6C265,491.67,253.19,492.16,246.41,488.25Z" transform="translate(-9 -7.91)"></path><path class="cls-12" d="M246.43,487.63l-209-120.68c-6.74-3.89-5.9-10.69,1.89-15.18L191.82,263.7c7.78-4.49,19.56-5,26.3-1.09l209,120.68c6.74,3.89,5.9,10.69-1.89,15.18L272.73,486.54C264.95,491,253.17,491.52,246.43,487.63Z" transform="translate(-9 -7.91)"></path><path class="cls-13" d="M246.45,487l-208-120.07c-6.7-3.87-5.86-10.63,1.88-15.1l151.58-87.52c7.74-4.47,19.45-5,26.15-1.08l208,120.07c6.7,3.87,5.86,10.63-1.88,15.1L272.61,485.92C264.87,490.39,253.16,490.88,246.45,487Z" transform="translate(-9 -7.91)"></path><path class="cls-14" d="M246.47,486.39,39.56,366.92c-6.67-3.85-5.83-10.57,1.87-15l150.65-87c7.7-4.44,19.34-4.93,26-1.08L425,383.32c6.67,3.85,5.83,10.57-1.87,15l-150.64,87C264.78,489.75,253.14,490.23,246.47,486.39Z" transform="translate(-9 -7.91)"></path><path class="cls-15" d="M246.49,485.76,40.64,366.91C34,363.09,34.84,356.4,42.49,352L192.2,265.55c7.65-4.42,19.23-4.9,25.86-1.07L423.92,383.33c6.63,3.83,5.8,10.51-1.86,14.93L272.35,484.69C264.7,489.11,253.12,489.59,246.49,485.76Z" transform="translate(-9 -7.91)"></path><path class="cls-16" d="M246.51,485.14,41.71,366.9c-6.59-3.81-5.76-10.45,1.85-14.84l148.77-85.89c7.61-4.39,19.12-4.87,25.71-1.07l204.8,118.24c6.59,3.8,5.76,10.45-1.85,14.84L272.23,484.08C264.62,488.47,253.1,488.95,246.51,485.14Z" transform="translate(-9 -7.91)"></path><path class="cls-17" d="M246.53,484.52,42.79,366.89c-6.55-3.78-5.73-10.39,1.84-14.76l147.83-85.35c7.57-4.37,19-4.84,25.56-1.06L421.76,383.35c6.55,3.78,5.73,10.39-1.84,14.76L272.1,483.46C264.53,487.83,253.09,488.31,246.53,484.52Z" transform="translate(-9 -7.91)"></path><path class="cls-18" d="M246.55,483.9l-202.69-117c-6.52-3.76-5.7-10.33,1.82-14.68l146.89-84.81c7.52-4.34,18.9-4.82,25.42-1.05l202.69,117c6.51,3.76,5.7,10.33-1.82,14.67L272,482.85C264.45,487.19,253.07,487.66,246.55,483.9Z" transform="translate(-9 -7.91)"></path><path class="cls-19" d="M246.57,483.28,44.94,366.87c-6.48-3.74-5.67-10.27,1.81-14.59l146-84.27c7.48-4.32,18.79-4.79,25.27-1L419.61,383.38c6.48,3.74,5.66,10.27-1.81,14.59l-146,84.27C264.37,486.55,253.05,487,246.57,483.28Z" transform="translate(-9 -7.91)"></path><path class="cls-20" d="M246.59,482.66,46,366.85c-6.44-3.72-5.63-10.21,1.8-14.51l145-83.72c7.44-4.29,18.68-4.76,25.12-1L418.54,383.39c6.44,3.72,5.63,10.21-1.8,14.51l-145,83.72C264.28,485.91,253,486.38,246.59,482.66Z" transform="translate(-9 -7.91)"></path><path class="cls-21" d="M246.61,482,47.09,366.84c-6.4-3.7-5.6-10.15,1.79-14.42L193,269.24c7.39-4.27,18.57-4.73,25-1L417.46,383.4c6.4,3.7,5.6,10.15-1.79,14.42L271.59,481C264.2,485.27,253,485.73,246.61,482Z" transform="translate(-9 -7.91)"></path><path class="cls-22" d="M246.63,481.42,48.17,366.83c-6.36-3.67-5.57-10.09,1.78-14.34l143.14-82.64c7.35-4.24,18.47-4.7,24.83-1L416.39,383.41c6.36,3.67,5.57,10.09-1.78,14.34L271.46,480.39C264.12,484.63,253,485.09,246.63,481.42Z" transform="translate(-9 -7.91)"></path><path class="cls-23" d="M246.66,480.8l-197.41-114c-6.33-3.65-5.53-10,1.77-14.25l142.2-82.1c7.31-4.22,18.36-4.68,24.68-1l197.41,114c6.33,3.65,5.53,10-1.77,14.25l-142.2,82.1C264,484,253,484.45,246.66,480.8Z" transform="translate(-9 -7.91)"></path><path class="cls-24" d="M246.68,480.17,50.32,366.81c-6.29-3.63-5.5-10,1.76-14.17l141.26-81.56c7.26-4.19,18.25-4.65,24.54-1L414.23,383.43c6.29,3.63,5.5,10-1.76,14.17L271.21,479.16C263.95,483.35,253,483.81,246.68,480.17Z" transform="translate(-9 -7.91)"></path><path class="cls-25" d="M246.7,479.55,51.39,366.8c-6.25-3.61-5.47-9.91,1.75-14.08l140.32-81c7.22-4.17,18.14-4.62,24.39-1l195.3,112.76c6.25,3.61,5.47,9.91-1.75,14.08l-140.32,81C263.87,482.71,252.95,483.16,246.7,479.55Z" transform="translate(-9 -7.91)"></path><path class="cls-26" d="M246.72,478.93,52.47,366.78c-6.21-3.59-5.43-9.85,1.74-14l139.39-80.47c7.17-4.14,18-4.59,24.24-1L412.08,383.46c6.21,3.59,5.43,9.85-1.74,14L271,477.93C263.78,482.07,252.93,482.52,246.72,478.93Z" transform="translate(-9 -7.91)"></path><path class="cls-27" d="M246.74,478.31,53.54,366.77c-6.18-3.57-5.4-9.79,1.73-13.91l138.45-79.93c7.13-4.12,17.92-4.56,24.09-1L411,383.47c6.18,3.57,5.4,9.79-1.73,13.91L270.83,477.31C263.7,481.43,252.91,481.88,246.74,478.31Z" transform="translate(-9 -7.91)"></path><path class="cls-28" d="M246.76,477.69,54.62,366.76c-6.14-3.54-5.37-9.73,1.72-13.83l137.51-79.39c7.09-4.09,17.81-4.54,23.95-1L409.93,383.48c6.14,3.54,5.37,9.73-1.72,13.83L270.7,476.7C263.62,480.79,252.89,481.23,246.76,477.69Z" transform="translate(-9 -7.91)"></path><path class="cls-29" d="M246.78,477.07,55.69,366.75c-6.1-3.52-5.34-9.67,1.71-13.74L194,274.16c7-4.07,17.7-4.51,23.8-1L408.86,383.49c6.1,3.52,5.34,9.67-1.71,13.74L270.58,476.08C263.53,480.15,252.88,480.59,246.78,477.07Z" transform="translate(-9 -7.91)"></path><path class="cls-30" d="M246.8,476.45l-190-109.71c-6.06-3.5-5.3-9.61,1.7-13.66L194.1,274.77c7-4,17.59-4.48,23.65-1l190,109.71c6.06,3.5,5.3,9.61-1.7,13.66L270.45,475.47C263.45,479.51,252.86,479.95,246.8,476.45Z" transform="translate(-9 -7.91)"></path><path class="cls-31" d="M246.82,475.83l-189-109.1c-6-3.48-5.27-9.55,1.69-13.57l134.69-77.77c7-4,17.48-4.45,23.51-1l189,109.1c6,3.48,5.27,9.55-1.69,13.57L270.32,474.85C263.37,478.87,252.84,479.31,246.82,475.83Z" transform="translate(-9 -7.91)"></path><path class="cls-32" d="M246.84,475.21,58.92,366.71c-6-3.46-5.24-9.49,1.68-13.49L194.35,276c6.91-4,17.37-4.43,23.36-1L405.63,383.53c6,3.46,5.24,9.49-1.68,13.49L270.2,474.24C263.28,478.23,252.82,478.66,246.84,475.21Z" transform="translate(-9 -7.91)"></path><path class="cls-33" d="M246.86,474.59,60,366.7c-5.95-3.44-5.2-9.44,1.67-13.4l132.82-76.68c6.87-4,17.26-4.4,23.21-1L404.55,383.54c5.95,3.43,5.2,9.43-1.67,13.4L270.07,473.62C263.2,477.59,252.81,478,246.86,474.59Z" transform="translate(-9 -7.91)"></path><path class="cls-34" d="M246.88,474,61.07,366.69c-5.91-3.41-5.17-9.38,1.66-13.32l131.88-76.14c6.83-3.94,17.15-4.37,23.07-1l185.8,107.27c5.91,3.41,5.17,9.38-1.66,13.32L269.94,473C263.12,476.95,252.79,477.38,246.88,474Z" transform="translate(-9 -7.91)"></path><path class="cls-35" d="M246.9,473.34,62.15,366.68c-5.87-3.39-5.14-9.32,1.65-13.23l130.94-75.6c6.78-3.92,17-4.34,22.92-1L402.4,383.56c5.87,3.39,5.14,9.32-1.65,13.23l-130.94,75.6C263,476.31,252.77,476.74,246.9,473.34Z" transform="translate(-9 -7.91)"></path><path class="cls-36" d="M246.92,472.72,63.22,366.67c-5.84-3.37-5.1-9.26,1.63-13.15l130-75.06c6.74-3.89,16.93-4.31,22.77-.94L401.33,383.57c5.84,3.37,5.1,9.26-1.63,13.15l-130,75.06C262.95,475.67,252.75,476.09,246.92,472.72Z" transform="translate(-9 -7.91)"></path><path class="cls-37" d="M246.94,472.1,64.3,366.66c-5.8-3.35-5.07-9.2,1.62-13.06L195,279.08c6.7-3.87,16.83-4.29,22.62-.94L400.25,383.59c5.8,3.35,5.07,9.2-1.62,13.06L269.56,471.16C262.87,475,252.74,475.45,246.94,472.1Z" transform="translate(-9 -7.91)"></path><path class="cls-38" d="M247,471.48,65.38,366.64c-5.76-3.33-5-9.14,1.61-13l128.13-74c6.65-3.84,16.72-4.26,22.48-.93L399.18,383.6c5.76,3.33,5,9.14-1.61,13l-128.13,74C262.78,474.39,252.72,474.81,247,471.48Z" transform="translate(-9 -7.91)"></path><path class="cls-39" d="M247,470.86,66.45,366.63c-5.72-3.3-5-9.08,1.6-12.89l127.19-73.43c6.61-3.82,16.61-4.23,22.33-.93L398.1,383.61c5.72,3.3,5,9.08-1.6,12.89L269.31,469.93C262.7,473.75,252.7,474.16,247,470.86Z" transform="translate(-9 -7.91)"></path><path class="cls-40" d="M247,470.24,67.53,366.62c-5.69-3.28-5-9,1.59-12.81l126.25-72.89c6.57-3.79,16.5-4.2,22.18-.92L397,383.62c5.69,3.28,5,9-1.59,12.81L269.18,469.32C262.62,473.11,252.68,473.52,247,470.24Z" transform="translate(-9 -7.91)"></path><path class="cls-41" d="M247,469.62,68.6,366.61c-5.65-3.26-4.94-9,1.58-12.72L195.5,281.54c6.52-3.77,16.39-4.17,22-.91l178.42,103c5.65,3.26,4.94,9-1.58,12.72L269.06,468.7C262.53,472.47,252.67,472.88,247,469.62Z" transform="translate(-9 -7.91)"></path><path class="cls-42" d="M247,469,69.68,366.6c-5.61-3.24-4.91-8.9,1.57-12.64l124.37-71.81c6.48-3.74,16.28-4.15,21.89-.91l177.36,102.4c5.61,3.24,4.91,8.9-1.57,12.64L268.93,468.09C262.45,471.83,252.65,472.24,247,469Z" transform="translate(-9 -7.91)"></path><path class="cls-43" d="M247.06,468.38,70.75,366.59c-5.57-3.22-4.87-8.84,1.56-12.55l123.44-71.27c6.43-3.72,16.17-4.12,21.74-.9L393.8,383.66c5.57,3.22,4.87,8.84-1.56,12.55L268.8,467.47C262.37,471.19,252.63,471.59,247.06,468.38Z" transform="translate(-9 -7.91)"></path><path class="cls-44" d="M247.08,467.75,71.83,366.57c-5.54-3.2-4.84-8.78,1.55-12.47l122.5-70.72c6.39-3.69,16.06-4.09,21.59-.9L392.72,383.67c5.54,3.2,4.84,8.78-1.55,12.47l-122.5,70.72C262.28,470.55,252.61,471,247.08,467.75Z" transform="translate(-9 -7.91)"></path><path class="cls-45" d="M247.1,467.13,72.9,366.56c-5.5-3.17-4.81-8.72,1.54-12.38L196,284c6.35-3.66,16-4.06,21.45-.89l174.2,100.57c5.5,3.17,4.81,8.72-1.54,12.38L268.55,466.24C262.2,469.91,252.6,470.31,247.1,467.13Z" transform="translate(-9 -7.91)"></path><path class="cls-46" d="M247.12,466.51,74,366.55c-5.46-3.15-4.78-8.66,1.53-12.3l120.62-69.64c6.3-3.64,15.84-4,21.3-.88l173.14,100c5.46,3.15,4.78,8.66-1.53,12.3L268.42,465.63C262.12,469.27,252.58,469.66,247.12,466.51Z" transform="translate(-9 -7.91)"></path><path class="cls-47" d="M247.14,465.89,75.06,366.54c-5.42-3.13-4.74-8.6,1.52-12.21l119.68-69.1c6.26-3.61,15.73-4,21.15-.88L389.49,383.7c5.42,3.13,4.74,8.6-1.52,12.21L268.29,465C262,468.63,252.56,469,247.14,465.89Z" transform="translate(-9 -7.91)"></path><path class="cls-48" d="M247.16,465.27l-171-98.74c-5.38-3.11-4.71-8.54,1.51-12.13l118.74-68.56c6.22-3.59,15.62-4,21-.87l171,98.74c5.38,3.11,4.71,8.54-1.51,12.13L268.17,464.4C262,468,252.55,468.38,247.16,465.27Z" transform="translate(-9 -7.91)"></path><path class="cls-49" d="M247.18,464.65l-170-98.13c-5.35-3.09-4.68-8.48,1.5-12l117.81-68c6.17-3.56,15.51-4,20.86-.86l170,98.13c5.35,3.09,4.68,8.48-1.5,12L268,463.78C261.87,467.35,252.53,467.74,247.18,464.65Z" transform="translate(-9 -7.91)"></path><path class="cls-50" d="M247.2,464,78.28,366.5c-5.31-3.07-4.64-8.42,1.49-12l116.87-67.47c6.13-3.54,15.4-3.92,20.71-.86l168.92,97.52c5.31,3.07,4.64,8.42-1.49,12L267.91,463.17C261.78,466.71,252.51,467.09,247.2,464Z" transform="translate(-9 -7.91)"></path><path class="cls-51" d="M247.22,463.41,79.36,366.49c-5.27-3-4.61-8.36,1.48-11.87l115.93-66.93c6.09-3.51,15.29-3.9,20.57-.85l167.86,96.92c5.27,3,4.61,8.36-1.48,11.87L267.79,462.55C261.7,466.07,252.49,466.45,247.22,463.41Z" transform="translate(-9 -7.91)"></path><path class="cls-52" d="M247.24,462.79,80.43,366.48c-5.23-3-4.58-8.3,1.47-11.79l115-66.39c6-3.49,15.18-3.87,20.42-.85l166.81,96.31c5.23,3,4.58,8.3-1.47,11.79l-115,66.39C261.62,465.43,252.48,465.81,247.24,462.79Z" transform="translate(-9 -7.91)"></path><path class="cls-53" d="M247.26,462.17,81.51,366.47c-5.2-3-4.54-8.24,1.46-11.7L197,288.92c6-3.46,15.08-3.84,20.27-.84L383,383.77c5.2,3,4.54,8.24-1.46,11.7L267.53,461.33C261.53,464.79,252.46,465.16,247.26,462.17Z" transform="translate(-9 -7.91)"></path><path class="cls-54" d="M247.28,461.54,82.59,366.46c-5.16-3-4.51-8.18,1.44-11.62l113.11-65.31c6-3.44,15-3.81,20.12-.83L382,383.78c5.16,3,4.51,8.18-1.44,11.62L267.41,460.71C261.45,464.15,252.44,464.52,247.28,461.54Z" transform="translate(-9 -7.91)"></path><path class="cls-55" d="M247.3,460.92,83.66,366.45c-5.12-3-4.48-8.12,1.43-11.53l112.18-64.76c5.91-3.41,14.86-3.78,20-.83L380.89,383.8c5.12,3,4.48,8.12-1.43,11.53L267.28,460.1C261.37,463.51,252.42,463.88,247.3,460.92Z" transform="translate(-9 -7.91)"></path><path class="cls-56" d="M247.32,460.3,84.74,366.43c-5.08-2.93-4.45-8.06,1.42-11.45L197.4,290.76c5.87-3.39,14.75-3.76,19.83-.82l162.59,93.87c5.08,2.93,4.45,8.06-1.42,11.45L267.15,459.48C261.28,462.87,252.41,463.24,247.32,460.3Z" transform="translate(-9 -7.91)"></path></g><path class="cls-57" d="M383.1,349.73,191.9,239.34V104.66c0-2.67,1.63-3.9,3.63-2.74l183.94,106.2c2,1.16,3.63,4.26,3.63,6.94Z" transform="translate(-9 -7.91)"></path><path class="cls-58" d="M383.09,205.95,199.15,99.75a2.38,2.38,0,0,0-2.19-.26v0l-.3.18-.08,0-3.25,1.95v0a2.38,2.38,0,0,1,2.19.26l183.94,106.2c2,1.16,3.63,4.26,3.63,6.94V349.73l3.62-2.17V212.88C386.72,210.21,385.1,207.1,383.09,205.95Z" transform="translate(-9 -7.91)"></path><polygon class="cls-59" points="366.82 329.85 190.18 227.86 190.18 103.89 366.82 205.87 366.82 329.85"></polygon><path class="cls-60" d="M257,416.44,76.37,312.15c-2.92-1.69-2.55-4.63.82-6.58l114.72-66.24,191.2,110.39L268.39,416C265,417.91,259.92,418.12,257,416.44Z" transform="translate(-9 -7.91)"></path><path class="cls-61" d="M268.39,416c-3.37,1.95-8.47,2.16-11.39.47L76.37,312.15a3.3,3.3,0,0,1-1.94-3h0V311h0V316h0a3.34,3.34,0,0,0,1.94,2.87L257,423.2c2.92,1.69,8,1.47,11.39-.47L383.11,356.5v-6.77Z" transform="translate(-9 -7.91)"></path><path class="cls-62" d="M190.25,260l-8.36-4.82a1.29,1.29,0,0,1,0-2.44l8.36-4.82a4.68,4.68,0,0,1,4.23,0l8.36,4.82a1.29,1.29,0,0,1,0,2.44L194.48,260A4.68,4.68,0,0,1,190.25,260Z" transform="translate(-9 -7.91)"></path><path class="cls-62" d="M206.65,269.52l-8.36-4.82a1.29,1.29,0,0,1,0-2.44l8.36-4.82a4.68,4.68,0,0,1,4.23,0l8.36,4.82a1.29,1.29,0,0,1,0,2.44l-8.36,4.82A4.68,4.68,0,0,1,206.65,269.52Z" transform="translate(-9 -7.91)"></path><path class="cls-62" d="M223.06,279l-8.36-4.82a1.29,1.29,0,0,1,0-2.44l8.36-4.82a4.68,4.68,0,0,1,4.23,0l8.36,4.82a1.29,1.29,0,0,1,0,2.44L227.29,279A4.68,4.68,0,0,1,223.06,279Z" transform="translate(-9 -7.91)"></path><path class="cls-62" d="M239.46,288.46l-8.36-4.82a1.29,1.29,0,0,1,0-2.44l8.36-4.82a4.68,4.68,0,0,1,4.23,0l8.36,4.82a1.29,1.29,0,0,1,0,2.44l-8.36,4.82A4.68,4.68,0,0,1,239.46,288.46Z" transform="translate(-9 -7.91)"></path><path class="cls-62" d="M255.86,297.93l-8.36-4.82a1.29,1.29,0,0,1,0-2.44l8.36-4.82a4.67,4.67,0,0,1,4.23,0l8.36,4.82a1.29,1.29,0,0,1,0,2.44l-8.36,4.82A4.68,4.68,0,0,1,255.86,297.93Z" transform="translate(-9 -7.91)"></path><path class="cls-62" d="M272.27,307.4l-8.36-4.82a1.29,1.29,0,0,1,0-2.44l8.36-4.82a4.68,4.68,0,0,1,4.23,0l8.36,4.82a1.29,1.29,0,0,1,0,2.44l-8.36,4.82A4.68,4.68,0,0,1,272.27,307.4Z" transform="translate(-9 -7.91)"></path><path class="cls-62" d="M288.67,316.88l-8.36-4.82a1.29,1.29,0,0,1,0-2.44l8.36-4.82a4.68,4.68,0,0,1,4.23,0l8.36,4.82a1.29,1.29,0,0,1,0,2.44l-8.36,4.82A4.67,4.67,0,0,1,288.67,316.88Z" transform="translate(-9 -7.91)"></path><path class="cls-62" d="M305.08,326.35l-8.36-4.82a1.29,1.29,0,0,1,0-2.44l8.35-4.82a4.68,4.68,0,0,1,4.23,0l8.36,4.82a1.29,1.29,0,0,1,0,2.44l-8.36,4.82A4.68,4.68,0,0,1,305.08,326.35Z" transform="translate(-9 -7.91)"></path><path class="cls-62" d="M321.48,335.82,313.13,331a1.29,1.29,0,0,1,0-2.44l8.36-4.82a4.68,4.68,0,0,1,4.23,0l8.36,4.82a1.29,1.29,0,0,1,0,2.44l-8.36,4.82A4.68,4.68,0,0,1,321.48,335.82Z" transform="translate(-9 -7.91)"></path><path class="cls-62" d="M337.89,345.29l-8.36-4.82a1.29,1.29,0,0,1,0-2.44l8.36-4.82a4.68,4.68,0,0,1,4.23,0l8.36,4.82a1.29,1.29,0,0,1,0,2.44l-8.36,4.82A4.68,4.68,0,0,1,337.89,345.29Z" transform="translate(-9 -7.91)"></path><path class="cls-62" d="M354.29,354.76l-8.35-4.82a1.29,1.29,0,0,1,0-2.44l8.35-4.82a4.68,4.68,0,0,1,4.23,0l8.36,4.82a1.29,1.29,0,0,1,0,2.44l-8.36,4.82A4.68,4.68,0,0,1,354.29,354.76Z" transform="translate(-9 -7.91)"></path><path class="cls-62" d="M174.28,269.42l-8.63-5a1.21,1.21,0,0,1,0-2.29l8.63-5a4.38,4.38,0,0,1,4,0l8.62,5a1.21,1.21,0,0,1,0,2.29l-8.62,5A4.38,4.38,0,0,1,174.28,269.42Z" transform="translate(-9 -7.91)"></path><path class="cls-62" d="M190.68,278.89l-8.63-5a1.21,1.21,0,0,1,0-2.29l8.63-5a4.38,4.38,0,0,1,4,0l8.62,5a1.21,1.21,0,0,1,0,2.29l-8.62,5A4.38,4.38,0,0,1,190.68,278.89Z" transform="translate(-9 -7.91)"></path><path class="cls-62" d="M207.09,288.37l-8.63-5a1.21,1.21,0,0,1,0-2.29l8.63-5a4.38,4.38,0,0,1,4,0l8.63,5a1.21,1.21,0,0,1,0,2.29l-8.63,5A4.38,4.38,0,0,1,207.09,288.37Z" transform="translate(-9 -7.91)"></path><path class="cls-62" d="M223.49,297.84l-8.63-5a1.21,1.21,0,0,1,0-2.29l8.63-5a4.38,4.38,0,0,1,4,0l8.62,5a1.21,1.21,0,0,1,0,2.29l-8.62,5A4.38,4.38,0,0,1,223.49,297.84Z" transform="translate(-9 -7.91)"></path><path class="cls-62" d="M239.9,307.31l-8.63-5a1.21,1.21,0,0,1,0-2.29l8.63-5a4.38,4.38,0,0,1,4,0l8.63,5a1.21,1.21,0,0,1,0,2.29l-8.63,5A4.38,4.38,0,0,1,239.9,307.31Z" transform="translate(-9 -7.91)"></path><path class="cls-62" d="M256.3,316.78l-8.63-5a1.21,1.21,0,0,1,0-2.29l8.63-5a4.38,4.38,0,0,1,4,0l8.63,5a1.21,1.21,0,0,1,0,2.29l-8.63,5A4.38,4.38,0,0,1,256.3,316.78Z" transform="translate(-9 -7.91)"></path><path class="cls-62" d="M272.71,326.25l-8.63-5a1.21,1.21,0,0,1,0-2.29l8.63-5a4.38,4.38,0,0,1,4,0l8.63,5a1.21,1.21,0,0,1,0,2.29l-8.63,5A4.38,4.38,0,0,1,272.71,326.25Z" transform="translate(-9 -7.91)"></path><path class="cls-62" d="M289.11,335.72l-8.63-5a1.21,1.21,0,0,1,0-2.29l8.63-5a4.38,4.38,0,0,1,4,0l8.62,5a1.21,1.21,0,0,1,0,2.29l-8.62,5A4.38,4.38,0,0,1,289.11,335.72Z" transform="translate(-9 -7.91)"></path><path class="cls-62" d="M305.52,345.19l-8.62-5a1.21,1.21,0,0,1,0-2.29l8.62-5a4.38,4.38,0,0,1,4,0l8.63,5a1.21,1.21,0,0,1,0,2.29l-8.63,5A4.38,4.38,0,0,1,305.52,345.19Z" transform="translate(-9 -7.91)"></path><path class="cls-62" d="M158.31,278.8l-8.89-5.14a1.13,1.13,0,0,1,0-2.13l8.89-5.14a4.09,4.09,0,0,1,3.69,0l8.89,5.14a1.13,1.13,0,0,1,0,2.13L162,278.8A4.08,4.08,0,0,1,158.31,278.8Z" transform="translate(-9 -7.91)"></path><path class="cls-62" d="M174.71,288.27l-8.89-5.13a1.13,1.13,0,0,1,0-2.13l8.89-5.14a4.08,4.08,0,0,1,3.69,0L187.3,281a1.13,1.13,0,0,1,0,2.13l-8.89,5.13A4.09,4.09,0,0,1,174.71,288.27Z" transform="translate(-9 -7.91)"></path><path class="cls-62" d="M191.12,297.74l-8.89-5.13a1.13,1.13,0,0,1,0-2.13l8.89-5.13a4.08,4.08,0,0,1,3.69,0l8.89,5.13a1.13,1.13,0,0,1,0,2.13l-8.89,5.13A4.08,4.08,0,0,1,191.12,297.74Z" transform="translate(-9 -7.91)"></path><path class="cls-62" d="M207.52,307.21l-8.89-5.14a1.13,1.13,0,0,1,0-2.13l8.89-5.14a4.08,4.08,0,0,1,3.69,0l8.89,5.14a1.13,1.13,0,0,1,0,2.13l-8.89,5.14A4.08,4.08,0,0,1,207.52,307.21Z" transform="translate(-9 -7.91)"></path><path class="cls-62" d="M223.93,316.68,215,311.55a1.13,1.13,0,0,1,0-2.13l8.89-5.13a4.08,4.08,0,0,1,3.69,0l8.89,5.13a1.13,1.13,0,0,1,0,2.13l-8.89,5.13A4.08,4.08,0,0,1,223.93,316.68Z" transform="translate(-9 -7.91)"></path><path class="cls-62" d="M240.33,326.15,231.44,321a1.13,1.13,0,0,1,0-2.13l8.89-5.14a4.08,4.08,0,0,1,3.69,0l8.89,5.14a1.13,1.13,0,0,1,0,2.13L244,326.15A4.08,4.08,0,0,1,240.33,326.15Z" transform="translate(-9 -7.91)"></path><path class="cls-62" d="M256.74,335.63l-8.89-5.14a1.13,1.13,0,0,1,0-2.13l8.89-5.13a4.08,4.08,0,0,1,3.69,0l8.89,5.14a1.13,1.13,0,0,1,0,2.13l-8.89,5.14A4.08,4.08,0,0,1,256.74,335.63Z" transform="translate(-9 -7.91)"></path><path class="cls-62" d="M273.14,345.1,264.25,340a1.13,1.13,0,0,1,0-2.13l8.89-5.13a4.08,4.08,0,0,1,3.69,0l8.89,5.13a1.13,1.13,0,0,1,0,2.13l-8.89,5.13A4.08,4.08,0,0,1,273.14,345.1Z" transform="translate(-9 -7.91)"></path><path class="cls-62" d="M289.55,354.57l-8.89-5.13a1.13,1.13,0,0,1,0-2.13l8.89-5.13a4.08,4.08,0,0,1,3.69,0l8.89,5.13a1.13,1.13,0,0,1,0,2.13l-8.89,5.13A4.08,4.08,0,0,1,289.55,354.57Z" transform="translate(-9 -7.91)"></path><path class="cls-62" d="M306,364l-8.89-5.14a1.13,1.13,0,0,1,0-2.13l8.89-5.13a4.08,4.08,0,0,1,3.69,0l8.89,5.14a1.13,1.13,0,0,1,0,2.13L309.65,364A4.08,4.08,0,0,1,306,364Z" transform="translate(-9 -7.91)"></path><path class="cls-62" d="M350.92,356.87l-6.79-3.92-1.83-1.06-16.4-9.47a4.38,4.38,0,0,0-4,0l-8.62,5a1.21,1.21,0,0,0,0,2.29L327.72,358l-5.36,3.09-3.71,2.14-5.18,3a1.13,1.13,0,0,0,0,2.13l8.89,5.14a4.08,4.08,0,0,0,3.69,0l4.87-2.81,4-2.32,16-9.22A1.21,1.21,0,0,0,350.92,356.87Z" transform="translate(-9 -7.91)"></path><path class="cls-62" d="M142.34,288.17l-9.16-5.29a1,1,0,0,1,0-2l9.16-5.29a3.78,3.78,0,0,1,3.43,0l9.16,5.29a1,1,0,0,1,0,2l-9.16,5.29A3.79,3.79,0,0,1,142.34,288.17Z" transform="translate(-9 -7.91)"></path><path class="cls-62" d="M158.75,297.64l-9.16-5.29a1,1,0,0,1,0-2l9.16-5.29a3.79,3.79,0,0,1,3.43,0l9.16,5.29a1,1,0,0,1,0,2l-9.16,5.29A3.79,3.79,0,0,1,158.75,297.64Z" transform="translate(-9 -7.91)"></path><path class="cls-62" d="M175.15,307.11,166,301.82a1,1,0,0,1,0-2l9.16-5.29a3.78,3.78,0,0,1,3.43,0l9.16,5.29a1,1,0,0,1,0,2l-9.16,5.29A3.78,3.78,0,0,1,175.15,307.11Z" transform="translate(-9 -7.91)"></path><path class="cls-62" d="M269.76,347.2l-16.4-9.47-9.16-5.29L237,328.26,227.79,323l-7.24-4.18-9.16-5.29-7.24-4.18-3.91-2.26L195,304a3.78,3.78,0,0,0-3.42,0l-9.16,5.29a1,1,0,0,0,0,2l5.25,3,3.91,2.26,7.24,4.18,9.16,5.29,7.24,4.18,9.16,5.29,7.24,4.18,9.16,5.29,16.4,9.47a3.78,3.78,0,0,0,3.43,0l9.16-5.29A1,1,0,0,0,269.76,347.2Z" transform="translate(-9 -7.91)"></path><path class="cls-62" d="M273.58,363.94l-9.16-5.29a1,1,0,0,1,0-2l9.16-5.29a3.78,3.78,0,0,1,3.43,0l9.16,5.29a1,1,0,0,1,0,2L277,363.94A3.78,3.78,0,0,1,273.58,363.94Z" transform="translate(-9 -7.91)"></path><path class="cls-62" d="M290,373.41l-9.16-5.29a1,1,0,0,1,0-2l9.16-5.29a3.79,3.79,0,0,1,3.43,0l9.16,5.29a1,1,0,0,1,0,2l-9.16,5.29A3.79,3.79,0,0,1,290,373.41Z" transform="translate(-9 -7.91)"></path><path class="cls-62" d="M306.39,382.89l-9.16-5.29a1,1,0,0,1,0-2l9.16-5.29a3.79,3.79,0,0,1,3.43,0l9.16,5.29a1,1,0,0,1,0,2l-9.16,5.29A3.79,3.79,0,0,1,306.39,382.89Z" transform="translate(-9 -7.91)"></path><path class="cls-62" d="M203.89,377l-60.55-35c-1.49-.86-1.3-2.36.42-3.35l33.56-19.38a6.45,6.45,0,0,1,5.81-.24l60.55,35c1.49.86,1.3,2.36-.42,3.35L209.7,376.78A6.45,6.45,0,0,1,203.89,377Z" transform="translate(-9 -7.91)"></path><polygon class="cls-63" points="349.9 340.07 173.26 238.09 173.26 114.12 349.9 216.1 349.9 340.07"></polygon><polygon class="cls-64" points="333.16 349.75 156.52 247.77 156.52 123.8 333.16 225.78 333.16 349.75"></polygon><path class="cls-65" d="M138.48,225.08,87,191.16c-2.17-1.25-3.93-4.62-3.93-7.52L79.44,51.12c0-2.58,4.44-5.27,7.59-3.8l54.76,31.62c2.77,1.22,3.93,3.94,3.93,7.52V219.8C145.72,223.11,141.24,226.07,138.48,225.08Z" transform="translate(-9 -7.91)"></path><path class="cls-57" d="M137.87,224.79,83.11,193.17c-2.17-1.25-3.93-4.62-3.93-7.52V52.31c0-2.9,1.76-4.23,3.93-3L137.87,81c2.77,1.22,3.93,3.94,3.93,7.52V221.82C141.81,224.71,140,226,137.87,224.79Z" transform="translate(-9 -7.91)"></path><polygon class="cls-66" points="129.65 204.92 73.33 172.4 73.34 49.41 129.65 81.92 129.65 204.92"></polygon><path class="cls-67" d="M114.71,73.31l-8.43-4.87a2.23,2.23,0,0,1-.93-1.78h0c0-.68.42-1,.93-.7l8.43,4.87a2.23,2.23,0,0,1,.93,1.78h0C115.64,73.29,115.22,73.61,114.71,73.31Z" transform="translate(-9 -7.91)"></path><path class="cls-67" d="M87.71,56.83c0,.9-.63,1.26-1.41.81a3.12,3.12,0,0,1-1.41-2.44c0-.9.63-1.26,1.41-.81A3.12,3.12,0,0,1,87.71,56.83Z" transform="translate(-9 -7.91)"></path><path class="cls-67" d="M90.53,58.45c0,.43-.3.6-.67.39a1.49,1.49,0,0,1-.67-1.17c0-.43.3-.6.67-.39A1.49,1.49,0,0,1,90.53,58.45Z" transform="translate(-9 -7.91)"></path><path class="cls-68" d="M114.33,204.92c0,2.45-1.72,3.44-3.84,2.22a8.49,8.49,0,0,1-3.84-6.65c0-2.45,1.72-3.44,3.84-2.22A8.48,8.48,0,0,1,114.33,204.92Z" transform="translate(-9 -7.91)"></path><path class="cls-62" d="M113.71,204.56c0,2.05-1.44,2.88-3.22,1.86a7.11,7.11,0,0,1-3.22-5.57c0-2.05,1.44-2.88,3.22-1.86A7.11,7.11,0,0,1,113.71,204.56Z" transform="translate(-9 -7.91)"></path><polygon class="cls-69" points="73.34 49.41 129.65 81.92 129.65 95.74 73.34 63.23 73.34 49.41"></polygon><polygon class="cls-70" points="75.89 55.92 82.84 59.93 82.84 58.83 75.89 54.81 75.89 55.92"></polygon><polygon class="cls-70" points="75.89 58.21 82.84 62.22 82.84 61.12 75.89 57.1 75.89 58.21"></polygon><polygon class="cls-70" points="75.89 60.5 82.84 64.51 82.84 63.41 75.89 59.4 75.89 60.5"></polygon><path class="cls-70" d="M133.55,94.71a.93.93,0,0,1,.48.39l2,3,.05.08-.67.62-.06-.08-2-3a1.17,1.17,0,0,1-.21-.64L132.42,94c-.76.4-2-.2-2.83-1.47s-1.12-3.08-.39-3.75,2.1-.09,3.05,1.31,1.08,2.76.58,3.53Zm-1.73-4.19c-.64-.93-1.55-1.33-2-.88s-.37,1.58.26,2.51,1.55,1.33,2,.88S132.45,91.46,131.82,90.53Z" transform="translate(-9 -7.91)"></path><g class="cls-71"><path d="M134.75,202.83l-45-26a3.68,3.68,0,0,1-1.54-2.93V149.28c0-1.13.69-1.65,1.54-1.16l45,26a3.68,3.68,0,0,1,1.54,2.93v24.65C136.28,202.8,135.59,203.32,134.75,202.83Z" transform="translate(-9 -7.91)"></path><path d="M134.74,134.35l-45-26a3.68,3.68,0,0,1-1.54-2.93V83.67c0-1.13.69-1.65,1.54-1.16l45,26a3.68,3.68,0,0,1,1.54,2.93v21.79C136.27,134.32,135.59,134.84,134.74,134.35Z" transform="translate(-9 -7.91)"></path><path d="M89.9,127.28l44.72,25.82c.91.53,1.65.1,1.65-1V139.23a3.65,3.65,0,0,0-1.65-2.86L89.9,110.56c-.91-.53-1.65-.1-1.65,1v12.92A3.65,3.65,0,0,0,89.9,127.28Z" transform="translate(-9 -7.91)"></path><path d="M89.9,146.1l44.72,25.82c.91.53,1.65.1,1.65-1V158.05a3.65,3.65,0,0,0-1.65-2.86L89.9,129.37c-.91-.53-1.65-.1-1.65,1v12.92A3.65,3.65,0,0,0,89.9,146.1Z" transform="translate(-9 -7.91)"></path></g><path class="cls-72" d="M131.83,199.1l-45-26a3.68,3.68,0,0,1-1.54-2.93V145.55c0-1.13.69-1.65,1.54-1.16l45,26a3.68,3.68,0,0,1,1.54,2.93v24.65C133.37,199.07,132.68,199.59,131.83,199.1Z" transform="translate(-9 -7.91)"></path><path class="cls-73" d="M130.26,196c-.64-5.74-3.53-18.11-7.72-20.6-4.76-2.83-6.64,6.88-8.7,5.59s-1.88-8-5.67-10.23-3.59,7.88-6.78,5.89-2.8-8.52-6.67-10.58c-2.82-1.5-5.31,3.35-6.28,5.77Z" transform="translate(-9 -7.91)"></path><path class="cls-72" d="M131.82,130.62l-45-26a3.68,3.68,0,0,1-1.54-2.93V79.94c0-1.13.69-1.65,1.54-1.16l45,26a3.68,3.68,0,0,1,1.54,2.93v21.79C133.36,130.59,132.67,131.11,131.82,130.62Z" transform="translate(-9 -7.91)"></path><path class="cls-74" d="M89.94,91.11l37.42,21.6a1.13,1.13,0,0,0,1.69-1v-3a1.67,1.67,0,0,0-.84-1.45L90.65,85.57a1,1,0,0,0-1.55.9v3.19A1.67,1.67,0,0,0,89.94,91.11Z" transform="translate(-9 -7.91)"></path><path class="cls-74" d="M89.1,94.87v1a1.34,1.34,0,0,0,.67,1.16l38.13,22a.76.76,0,0,0,1.15-.66V117.3a1.34,1.34,0,0,0-.67-1.16l-38.05-22A.82.82,0,0,0,89.1,94.87Z" transform="translate(-9 -7.91)"></path><path class="cls-74" d="M89.1,100.42v1a1.35,1.35,0,0,0,.68,1.17L128,124.62A.71.71,0,0,0,129,124v-1.22a1.35,1.35,0,0,0-.68-1.17l-38-21.93A.86.86,0,0,0,89.1,100.42Z" transform="translate(-9 -7.91)"></path><path class="cls-72" d="M87,123.55l44.72,25.82c.91.53,1.65.1,1.65-1V135.5a3.65,3.65,0,0,0-1.65-2.86L87,106.83c-.91-.53-1.65-.1-1.65,1V120.7A3.65,3.65,0,0,0,87,123.55Z" transform="translate(-9 -7.91)"></path><polygon class="cls-74" points="92.97 121.99 79.14 114 79.14 101.89 92.97 109.87 92.97 121.99"></polygon><polygon class="cls-69" points="79.14 111.09 82.53 109.68 85.5 114.12 89.84 112.11 92.97 116.93 92.97 121.99 79.14 114 79.14 111.09"></polygon><path class="cls-69" d="M95.36,117.77c0,.78-.55,1.09-1.22.7a2.7,2.7,0,0,1-1.22-2.11c0-.78.55-1.09,1.22-.7A2.7,2.7,0,0,1,95.36,117.77Z" transform="translate(-9 -7.91)"></path><path class="cls-74" d="M129.78,144l-25.23-14.56a.8.8,0,0,1-.4-.69v-1.18a.6.6,0,0,1,.9-.52l25.1,14.49a.8.8,0,0,1,.4.69v1.32A.52.52,0,0,1,129.78,144Z" transform="translate(-9 -7.91)"></path><path class="cls-74" d="M116.68,131.93l-12.13-7a.79.79,0,0,1-.4-.69v-3.39a.5.5,0,0,1,.75-.44l12.05,7a.79.79,0,0,1,.4.69v3.48A.45.45,0,0,1,116.68,131.93Z" transform="translate(-9 -7.91)"></path><path class="cls-72" d="M87,142.37l44.72,25.82c.91.53,1.65.1,1.65-1V154.32a3.65,3.65,0,0,0-1.65-2.86L87,125.64c-.91-.53-1.65-.1-1.65,1v12.92A3.65,3.65,0,0,0,87,142.37Z" transform="translate(-9 -7.91)"></path><path class="cls-74" d="M129.78,162.88l-25.23-14.56a.8.8,0,0,1-.4-.69v-1.18a.6.6,0,0,1,.9-.52l25.1,14.49a.8.8,0,0,1,.4.69v1.32A.52.52,0,0,1,129.78,162.88Z" transform="translate(-9 -7.91)"></path><path class="cls-74" d="M116.68,150.76l-12.13-7a.79.79,0,0,1-.4-.69v-3.39a.5.5,0,0,1,.75-.44l12.05,7a.79.79,0,0,1,.4.69v3.48A.45.45,0,0,1,116.68,150.76Z" transform="translate(-9 -7.91)"></path><polygon class="cls-74" points="92.97 140.81 79.14 132.82 79.14 120.71 92.97 128.69 92.97 140.81"></polygon><polygon class="cls-69" points="79.14 129.91 82.53 128.5 85.5 132.94 89.84 130.93 92.97 135.75 92.97 140.81 79.14 132.82 79.14 129.91"></polygon><path class="cls-69" d="M95.36,136.59c0,.78-.55,1.09-1.22.7a2.7,2.7,0,0,1-1.22-2.11c0-.78.55-1.09,1.22-.7A2.7,2.7,0,0,1,95.36,136.59Z" transform="translate(-9 -7.91)"></path><g class="cls-4"><path class="cls-5" d="M131.69,256.47,63.58,217.15c-1.67-1.33-1.68-3.71-.08-4.69l11-6.38a4.57,4.57,0,0,1,4.12-.17l67.45,38.94a3.1,3.1,0,0,1,.51,5.2L135.8,256.3A4.57,4.57,0,0,1,131.69,256.47Z" transform="translate(-9 -7.91)"></path><path class="cls-6" d="M131.64,256.34,63.76,217.15c-1.66-1.32-1.67-3.67-.08-4.64l10.9-6.3A4.57,4.57,0,0,1,78.7,206l67.24,38.82a3.06,3.06,0,0,1,.5,5.14l-10.68,6.17A4.57,4.57,0,0,1,131.64,256.34Z" transform="translate(-9 -7.91)"></path><path class="cls-7" d="M131.6,256.21,63.95,217.15a2.78,2.78,0,0,1-.07-4.59l10.76-6.21a4.57,4.57,0,0,1,4.11-.17l67,38.7a3,3,0,0,1,.48,5.08L135.71,256A4.57,4.57,0,0,1,131.6,256.21Z" transform="translate(-9 -7.91)"></path><path class="cls-8" d="M131.55,256.08,64.13,217.15a2.75,2.75,0,0,1-.06-4.55l10.62-6.13a4.56,4.56,0,0,1,4.11-.17l66.81,38.57a3,3,0,0,1,.47,5l-10.41,6A4.56,4.56,0,0,1,131.55,256.08Z" transform="translate(-9 -7.91)"></path><path class="cls-9" d="M131.51,255.95l-67.2-38.8a2.71,2.71,0,0,1-.05-4.5l10.48-6a4.56,4.56,0,0,1,4.1-.17l66.59,38.45a2.94,2.94,0,0,1,.45,5l-10.27,5.93A4.56,4.56,0,0,1,131.51,255.95Z" transform="translate(-9 -7.91)"></path><path class="cls-10" d="M131.47,255.82l-67-38.67a2.68,2.68,0,0,1,0-4.45l10.33-6a4.56,4.56,0,0,1,4.1-.17l66.38,38.32a2.9,2.9,0,0,1,.44,4.91l-10.13,5.85A4.56,4.56,0,0,1,131.47,255.82Z" transform="translate(-9 -7.91)"></path><path class="cls-11" d="M131.42,255.69,64.68,217.15a2.64,2.64,0,0,1,0-4.4l10.19-5.88a4.55,4.55,0,0,1,4.1-.17l66.17,38.2a2.86,2.86,0,0,1,.42,4.85l-10,5.77A4.55,4.55,0,0,1,131.42,255.69Z" transform="translate(-9 -7.91)"></path><path class="cls-12" d="M131.38,255.56l-66.52-38.4a2.61,2.61,0,0,1,0-4.36l10-5.8a4.55,4.55,0,0,1,4.09-.17l66,38.08a2.82,2.82,0,0,1,.4,4.8l-9.85,5.69A4.55,4.55,0,0,1,131.38,255.56Z" transform="translate(-9 -7.91)"></path><path class="cls-13" d="M131.33,255.43,65,217.15a2.58,2.58,0,0,1,0-4.31l9.9-5.72A4.55,4.55,0,0,1,79,207l65.74,38a2.78,2.78,0,0,1,.39,4.74l-9.71,5.61A4.55,4.55,0,0,1,131.33,255.43Z" transform="translate(-9 -7.91)"></path><path class="cls-14" d="M131.29,255.3,65.23,217.15a2.54,2.54,0,0,1,0-4.26L75,207.26a4.54,4.54,0,0,1,4.09-.17l65.52,37.83a2.74,2.74,0,0,1,.37,4.68l-9.58,5.53A4.54,4.54,0,0,1,131.29,255.3Z" transform="translate(-9 -7.91)"></path><path class="cls-15" d="M131.25,255.17l-65.84-38a2.51,2.51,0,0,1,0-4.22L75,207.39a4.54,4.54,0,0,1,4.08-.17l65.31,37.71a2.7,2.7,0,0,1,.36,4.63L135.33,255A4.54,4.54,0,0,1,131.25,255.17Z" transform="translate(-9 -7.91)"></path><path class="cls-16" d="M131.2,255,65.59,217.16a2.47,2.47,0,0,1,0-4.17l9.48-5.47a4.53,4.53,0,0,1,4.08-.17l65.09,37.58a2.67,2.67,0,0,1,.34,4.57l-9.3,5.37A4.53,4.53,0,0,1,131.2,255Z" transform="translate(-9 -7.91)"></path><path class="cls-17" d="M131.16,254.91,65.77,217.16a2.44,2.44,0,0,1,0-4.12l9.33-5.39a4.53,4.53,0,0,1,4.08-.17l64.88,37.46a2.63,2.63,0,0,1,.33,4.51l-9.16,5.29A4.53,4.53,0,0,1,131.16,254.91Z" transform="translate(-9 -7.91)"></path><path class="cls-18" d="M131.11,254.77,66,217.16a2.41,2.41,0,0,1,0-4.07l9.19-5.31a4.53,4.53,0,0,1,4.07-.17l64.67,37.34a2.59,2.59,0,0,1,.31,4.45l-9,5.21A4.53,4.53,0,0,1,131.11,254.77Z" transform="translate(-9 -7.91)"></path><path class="cls-19" d="M131.07,254.64,66.14,217.16a2.37,2.37,0,0,1,0-4l9-5.22a4.52,4.52,0,0,1,4.07-.17l64.45,37.21a2.55,2.55,0,0,1,.3,4.4l-8.89,5.13A4.52,4.52,0,0,1,131.07,254.64Z" transform="translate(-9 -7.91)"></path><path class="cls-20" d="M131,254.51l-64.7-37.36a2.34,2.34,0,0,1,0-4L75.25,208a4.52,4.52,0,0,1,4.07-.17L143.56,245a2.51,2.51,0,0,1,.28,4.34l-8.75,5.05A4.52,4.52,0,0,1,131,254.51Z" transform="translate(-9 -7.91)"></path><path class="cls-21" d="M131,254.38,66.51,217.16a2.31,2.31,0,0,1,0-3.93l8.76-5.06a4.52,4.52,0,0,1,4.06-.17l64,37a2.47,2.47,0,0,1,.26,4.28l-8.61,5A4.52,4.52,0,0,1,131,254.38Z" transform="translate(-9 -7.91)"></path><path class="cls-22" d="M130.94,254.25,66.69,217.16a2.27,2.27,0,0,1,0-3.88l8.62-5a4.51,4.51,0,0,1,4.06-.17L143.22,245a2.43,2.43,0,0,1,.25,4.22L135,254.08A4.51,4.51,0,0,1,130.94,254.25Z" transform="translate(-9 -7.91)"></path><path class="cls-23" d="M130.89,254.12l-64-37a2.24,2.24,0,0,1,0-3.84l8.48-4.89a4.51,4.51,0,0,1,4.06-.17L143,245a2.4,2.4,0,0,1,.23,4.17L134.95,254A4.51,4.51,0,0,1,130.89,254.12Z" transform="translate(-9 -7.91)"></path><path class="cls-24" d="M130.85,254,67.05,217.16a2.21,2.21,0,0,1,.05-3.79l8.34-4.81a4.5,4.5,0,0,1,4.05-.17L142.88,245a2.36,2.36,0,0,1,.22,4.11l-8.19,4.73A4.5,4.5,0,0,1,130.85,254Z" transform="translate(-9 -7.91)"></path><path class="cls-25" d="M130.8,253.86l-63.57-36.7a2.17,2.17,0,0,1,.06-3.74l8.19-4.73a4.5,4.5,0,0,1,4-.17L142.71,245a2.32,2.32,0,0,1,.2,4.05l-8.06,4.65A4.5,4.5,0,0,1,130.8,253.86Z" transform="translate(-9 -7.91)"></path><path class="cls-26" d="M130.76,253.73,67.42,217.16a2.14,2.14,0,0,1,.07-3.7l8.05-4.65a4.5,4.5,0,0,1,4-.17l63,36.35a2.28,2.28,0,0,1,.19,4l-7.92,4.57A4.5,4.5,0,0,1,130.76,253.73Z" transform="translate(-9 -7.91)"></path><path class="cls-27" d="M130.72,253.6,67.6,217.16a2.11,2.11,0,0,1,.08-3.65l7.91-4.57a4.49,4.49,0,0,1,4-.17L142.37,245a2.25,2.25,0,0,1,.17,3.94l-7.78,4.49A4.49,4.49,0,0,1,130.72,253.6Z" transform="translate(-9 -7.91)"></path><path class="cls-28" d="M130.67,253.47,67.79,217.16a2.08,2.08,0,0,1,.08-3.6l7.76-4.48a4.49,4.49,0,0,1,4-.17L142.2,245a2.21,2.21,0,0,1,.15,3.88l-7.64,4.41A4.49,4.49,0,0,1,130.67,253.47Z" transform="translate(-9 -7.91)"></path><path class="cls-29" d="M130.63,253.34,68,217.16a2,2,0,0,1,.09-3.55l7.62-4.4a4.49,4.49,0,0,1,4-.17L142,245a2.17,2.17,0,0,1,.14,3.82l-7.5,4.33A4.49,4.49,0,0,1,130.63,253.34Z" transform="translate(-9 -7.91)"></path><path class="cls-30" d="M130.58,253.21l-62.43-36a2,2,0,0,1,.1-3.51l7.48-4.32a4.48,4.48,0,0,1,4-.17L141.86,245a2.13,2.13,0,0,1,.12,3.77L134.62,253A4.48,4.48,0,0,1,130.58,253.21Z" transform="translate(-9 -7.91)"></path><path class="cls-31" d="M130.54,253.08l-62.2-35.91a2,2,0,0,1,.1-3.46l7.34-4.24a4.48,4.48,0,0,1,4-.17L141.69,245a2.1,2.1,0,0,1,.11,3.71l-7.23,4.17A4.48,4.48,0,0,1,130.54,253.08Z" transform="translate(-9 -7.91)"></path><path class="cls-32" d="M130.5,252.95l-62-35.78a2,2,0,0,1,.11-3.41l7.19-4.15a4.48,4.48,0,0,1,4-.17L141.52,245a2.06,2.06,0,0,1,.09,3.65l-7.09,4.09A4.48,4.48,0,0,1,130.5,252.95Z" transform="translate(-9 -7.91)"></path><path class="cls-33" d="M130.45,252.82,68.7,217.17a1.91,1.91,0,0,1,.12-3.37l7.05-4.07a4.47,4.47,0,0,1,4-.17L141.35,245a2,2,0,0,1,.08,3.59l-6.95,4A4.47,4.47,0,0,1,130.45,252.82Z" transform="translate(-9 -7.91)"></path><path class="cls-34" d="M130.41,252.69,68.88,217.17a1.88,1.88,0,0,1,.13-3.32l6.91-4a4.47,4.47,0,0,1,4-.17l61.24,35.36a2,2,0,0,1,.06,3.54l-6.81,3.93A4.47,4.47,0,0,1,130.41,252.69Z" transform="translate(-9 -7.91)"></path><path class="cls-35" d="M130.36,252.56l-61.3-35.39a1.85,1.85,0,0,1,.13-3.27L76,210a4.46,4.46,0,0,1,4-.17l61,35.23a2,2,0,0,1,0,3.48l-6.67,3.85A4.46,4.46,0,0,1,130.36,252.56Z" transform="translate(-9 -7.91)"></path><path class="cls-36" d="M130.32,252.43,69.25,217.17a1.82,1.82,0,0,1,.14-3.22L76,210.12a4.46,4.46,0,0,1,4-.17l60.81,35.11a1.91,1.91,0,0,1,0,3.42l-6.54,3.77A4.46,4.46,0,0,1,130.32,252.43Z" transform="translate(-9 -7.91)"></path><path class="cls-37" d="M130.28,252.3,69.43,217.17a1.79,1.79,0,0,1,.15-3.18l6.48-3.74a4.46,4.46,0,0,1,4-.17l60.6,35a1.87,1.87,0,0,1,0,3.37l-6.4,3.69A4.46,4.46,0,0,1,130.28,252.3Z" transform="translate(-9 -7.91)"></path><path class="cls-38" d="M130.23,252.17l-60.62-35a1.76,1.76,0,0,1,.15-3.13l6.34-3.66a4.45,4.45,0,0,1,4-.17l60.38,34.86a1.84,1.84,0,0,1,0,3.31L134.24,252A4.45,4.45,0,0,1,130.23,252.17Z" transform="translate(-9 -7.91)"></path><path class="cls-39" d="M130.19,252,69.8,217.17a1.72,1.72,0,0,1,.16-3.08l6.2-3.58a4.45,4.45,0,0,1,4-.17l60.17,34.74a1.8,1.8,0,0,1,0,3.25l-6.12,3.53A4.45,4.45,0,0,1,130.19,252Z" transform="translate(-9 -7.91)"></path><path class="cls-40" d="M130.14,251.91,70,217.17a1.69,1.69,0,0,1,.17-3l6.05-3.49a4.45,4.45,0,0,1,4-.17l60,34.62a1.77,1.77,0,0,1,0,3.19l-6,3.45A4.45,4.45,0,0,1,130.14,251.91Z" transform="translate(-9 -7.91)"></path><path class="cls-41" d="M130.1,251.78l-59.93-34.6a1.66,1.66,0,0,1,.18-3l5.91-3.41a4.44,4.44,0,0,1,4-.17L140,245.1a1.73,1.73,0,0,1,0,3.14l-5.84,3.37A4.44,4.44,0,0,1,130.1,251.78Z" transform="translate(-9 -7.91)"></path><path class="cls-42" d="M130.05,251.65,70.35,217.17a1.63,1.63,0,0,1,.18-2.94l5.77-3.33a4.44,4.44,0,0,1,4-.17l59.53,34.37a1.69,1.69,0,0,1-.06,3.08L134,251.48A4.44,4.44,0,0,1,130.05,251.65Z" transform="translate(-9 -7.91)"></path><path class="cls-43" d="M130,251.51,70.53,217.17a1.6,1.6,0,0,1,.19-2.89L76.34,211a4.43,4.43,0,0,1,4-.17l59.31,34.24a1.66,1.66,0,0,1-.08,3L134,251.35A4.43,4.43,0,0,1,130,251.51Z" transform="translate(-9 -7.91)"></path><path class="cls-44" d="M130,251.38,70.71,217.17c-1.17-.76-1.07-2.1.2-2.85l5.48-3.17a4.43,4.43,0,0,1,4-.17l59.1,34.12c1.32.76,1.16,2.21-.1,3L134,251.22A4.43,4.43,0,0,1,130,251.38Z" transform="translate(-9 -7.91)"></path><path class="cls-45" d="M129.92,251.25l-59-34.08c-1.15-.75-1.06-2.06.2-2.8l5.34-3.08a4.43,4.43,0,0,1,4-.17l58.89,34c1.29.74,1.13,2.16-.11,2.91l-5.29,3.05A4.43,4.43,0,0,1,129.92,251.25Z" transform="translate(-9 -7.91)"></path><path class="cls-46" d="M129.88,251.12l-58.8-33.95c-1.14-.73-1-2,.21-2.75l5.2-3a4.42,4.42,0,0,1,4-.16l58.67,33.87c1.27.73,1.11,2.11-.13,2.85l-5.15,3A4.42,4.42,0,0,1,129.88,251.12Z" transform="translate(-9 -7.91)"></path><path class="cls-47" d="M129.83,251,71.26,217.18c-1.13-.72-1-2,.22-2.7l5.05-2.92a4.42,4.42,0,0,1,4-.16L139,245.14c1.24.72,1.09,2.06-.14,2.79l-5,2.9A4.42,4.42,0,0,1,129.83,251Z" transform="translate(-9 -7.91)"></path><path class="cls-48" d="M129.79,250.86,71.44,217.18c-1.12-.7-1-1.94.23-2.66l4.91-2.84a4.42,4.42,0,0,1,4-.16l58.24,33.63c1.22.7,1.07,2-.16,2.74l-4.88,2.82A4.42,4.42,0,0,1,129.79,250.86Z" transform="translate(-9 -7.91)"></path><path class="cls-49" d="M129.75,250.73,71.63,217.18c-1.1-.69-1-1.89.23-2.61l4.77-2.75a4.41,4.41,0,0,1,4-.16l58,33.5c1.19.69,1,2-.17,2.68l-4.74,2.74A4.41,4.41,0,0,1,129.75,250.73Z" transform="translate(-9 -7.91)"></path><path class="cls-50" d="M129.7,250.6,71.81,217.18c-1.09-.67-1-1.85.24-2.56l4.63-2.67a4.41,4.41,0,0,1,4-.16l57.81,33.38c1.16.67,1,1.91-.19,2.62l-4.6,2.66A4.41,4.41,0,0,1,129.7,250.6Z" transform="translate(-9 -7.91)"></path><path class="cls-51" d="M129.66,250.47,72,217.18c-1.08-.66-1-1.81.25-2.51l4.48-2.59a4.41,4.41,0,0,1,4-.16l57.6,33.26c1.14.66,1,1.86-.21,2.56l-4.46,2.58A4.41,4.41,0,0,1,129.66,250.47Z" transform="translate(-9 -7.91)"></path><path class="cls-52" d="M129.61,250.34,72.18,217.18c-1.06-.64-.95-1.77.25-2.47l4.34-2.51a4.4,4.4,0,0,1,4-.16l57.39,33.13c1.11.64,1,1.81-.22,2.51l-4.32,2.5A4.4,4.4,0,0,1,129.61,250.34Z" transform="translate(-9 -7.91)"></path><path class="cls-53" d="M129.57,250.21l-57.21-33c-1.05-.63-.93-1.73.26-2.42l4.2-2.42a4.4,4.4,0,0,1,4-.16l57.17,33c1.09.63,1,1.76-.24,2.45L133.53,250A4.4,4.4,0,0,1,129.57,250.21Z" transform="translate(-9 -7.91)"></path><path class="cls-54" d="M129.53,250.08l-57-32.9c-1-.61-.92-1.69.27-2.37l4.06-2.34a4.39,4.39,0,0,1,4-.16l57,32.88c1.06.61.93,1.7-.25,2.39l-4,2.34A4.39,4.39,0,0,1,129.53,250.08Z" transform="translate(-9 -7.91)"></path><path class="cls-55" d="M129.48,249.95,72.72,217.18c-1-.6-.9-1.65.28-2.33l3.91-2.26a4.39,4.39,0,0,1,4-.16l56.74,32.76c1,.6.91,1.65-.27,2.34l-3.91,2.26A4.39,4.39,0,0,1,129.48,249.95Z" transform="translate(-9 -7.91)"></path><path class="cls-56" d="M129.44,249.82,72.91,217.18c-1-.58-.88-1.6.28-2.28L77,212.73a4.39,4.39,0,0,1,3.95-.16l56.53,32.64c1,.58.88,1.6-.28,2.28l-3.77,2.18A4.39,4.39,0,0,1,129.44,249.82Z" transform="translate(-9 -7.91)"></path></g><g class="cls-75"><path class="cls-62" d="M254,209.06l-73.63-42.51a3.61,3.61,0,0,1-1.51-2.88v-3.51c0-1.11.68-1.62,1.51-1.14L254,201.53a3.61,3.61,0,0,1,1.51,2.88v3.51C255.47,209,254.79,209.54,254,209.06Z" transform="translate(-9 -7.91)"></path><path class="cls-62" d="M254.67,219.22l-75-43.33a1.92,1.92,0,0,1-.8-1.53v-2.59c0-.59.36-.86.8-.61l75,43.33a1.92,1.92,0,0,1,.8,1.53v2.59C255.47,219.2,255.11,219.48,254.67,219.22Z" transform="translate(-9 -7.91)"></path><path class="cls-62" d="M254.67,228l-75-43.33a1.92,1.92,0,0,1-.8-1.53v-2.59c0-.59.36-.86.8-.61l75,43.33a1.92,1.92,0,0,1,.8,1.53v2.59C255.47,227.94,255.11,228.22,254.67,228Z" transform="translate(-9 -7.91)"></path><path class="cls-62" d="M239.48,236.67l-59.94-34.61a1.72,1.72,0,0,1-.72-1.37v-2.82c0-.53.32-.77.72-.54l59.94,34.61a1.72,1.72,0,0,1,.72,1.37v2.82C240.19,236.66,239.87,236.9,239.48,236.67Z" transform="translate(-9 -7.91)"></path><path class="cls-62" d="M254.67,236.7l-75-43.33a1.92,1.92,0,0,1-.8-1.53v-2.59c0-.59.36-.86.8-.61l75,43.33a1.92,1.92,0,0,1,.8,1.53v2.59C255.47,236.68,255.11,237,254.67,236.7Z" transform="translate(-9 -7.91)"></path><path class="cls-62" d="M225.91,250.62l27.79,16c.65.38,1.19.07,1.19-.68v-1.75a2.62,2.62,0,0,0-1.19-2.05l-27.79-16c-.66-.38-1.19-.07-1.19.68v1.75A2.62,2.62,0,0,0,225.91,250.62Z" transform="translate(-9 -7.91)"></path><path class="cls-62" d="M225.91,261.37l27.79,16c.65.38,1.19.07,1.19-.68V275a2.62,2.62,0,0,0-1.19-2.05l-27.79-16c-.66-.38-1.19-.07-1.19.68v1.75A2.62,2.62,0,0,0,225.91,261.37Z" transform="translate(-9 -7.91)"></path><path class="cls-62" d="M225.91,272l27.79,16c.65.38,1.19.07,1.19-.68v-1.75a2.62,2.62,0,0,0-1.19-2.05l-27.79-16c-.66-.38-1.19-.07-1.19.68V270A2.62,2.62,0,0,0,225.91,272Z" transform="translate(-9 -7.91)"></path><path class="cls-62" d="M215.93,245.72l3.16,1.83c.61.35,1.1,0,1.1-.83v-3.26a2.64,2.64,0,0,0-1.1-2.11l-3.16-1.83c-.61-.35-1.1,0-1.1.83v3.26A2.64,2.64,0,0,0,215.93,245.72Z" transform="translate(-9 -7.91)"></path><path class="cls-62" d="M215.93,256.46l3.16,1.83c.61.35,1.1,0,1.1-.83v-3.26a2.64,2.64,0,0,0-1.1-2.11l-3.16-1.83c-.61-.35-1.1,0-1.1.83v3.26A2.64,2.64,0,0,0,215.93,256.46Z" transform="translate(-9 -7.91)"></path><path class="cls-62" d="M215.93,267.1l3.16,1.83c.61.35,1.1,0,1.1-.83v-3.26a2.64,2.64,0,0,0-1.1-2.11l-3.16-1.83c-.61-.35-1.1,0-1.1.83V265A2.65,2.65,0,0,0,215.93,267.1Z" transform="translate(-9 -7.91)"></path><path class="cls-62" d="M192.66,222.1v16.78l10.28-5.93a30.18,30.18,0,0,0-10.28-10.85" transform="translate(-9 -7.91)"></path><path class="cls-62" d="M202.59,235.73,193,241.29l6.49,17.56c4.22-.25,7.07-3.79,7.07-9.74a27.89,27.89,0,0,0-3.95-13.37" transform="translate(-9 -7.91)"></path><path class="cls-62" d="M191.22,224.74c-7.4-4.22-13.38-.74-13.38,7.82a22.53,22.53,0,0,0,.8,5.7h0v0l.05.2h0c2,6.85,6.9,13.91,12.55,17.17a11.89,11.89,0,0,0,6.35,1.83l-6.39-17.28Z" transform="translate(-9 -7.91)"></path><path class="cls-62" d="M327.54,296.21v36.86c0,1.82-1.11,2.67-2.49,1.88l-59.76-34.5a5.93,5.93,0,0,1-2.49-4.76V258.82c0-1.82,1.11-2.67,2.49-1.88L325,291.45A6,6,0,0,1,327.54,296.21Z" transform="translate(-9 -7.91)"></path><path class="cls-69" d="M327.54,318.29v14.78c0,1.82-1.11,2.67-2.49,1.88l-59.76-34.5a5.93,5.93,0,0,1-2.49-4.76v-4.55l15.49-6.45L292.52,306l20.76-9.65Z" transform="translate(-9 -7.91)"></path><path class="cls-69" d="M298.63,292.38c0,3.26-2.29,4.58-5.11,3a11.3,11.3,0,0,1-5.11-8.86c0-3.26,2.29-4.58,5.11-3A11.3,11.3,0,0,1,298.63,292.38Z" transform="translate(-9 -7.91)"></path><path class="cls-62" d="M327.55,247.33v36.86c0,1.82-1.11,2.67-2.49,1.88l-59.76-34.5a5.93,5.93,0,0,1-2.49-4.76V209.95c0-1.82,1.11-2.67,2.49-1.88l59.76,34.5A6,6,0,0,1,327.55,247.33Z" transform="translate(-9 -7.91)"></path><path class="cls-69" d="M327.55,269.42v14.78c0,1.82-1.11,2.67-2.49,1.88l-59.76-34.5a5.93,5.93,0,0,1-2.49-4.76v-4.55l15.49-6.45,14.24,21.3,20.76-9.65Z" transform="translate(-9 -7.91)"></path><path class="cls-69" d="M298.63,243.51c0,3.26-2.29,4.58-5.11,3a11.3,11.3,0,0,1-5.11-8.86c0-3.26,2.29-4.58,5.11-3A11.3,11.3,0,0,1,298.63,243.51Z" transform="translate(-9 -7.91)"></path></g><path class="cls-76" d="M342.4,58.41c-4.6-3.13-12.49.46-11.8,4.12l3.13,56.6c0,5.28,3.21,11.41,7.16,13.69l65.5,37.82,7.56,24.49,3.9-17.88,7.75,8.59c3.13,2,10.87.74,10.87-7.4V131c0-5-2.89-10.82-5.79-12.8Z" transform="translate(-9 -7.91)"></path><path class="cls-77" d="M337.73,59.73c-4.16-2.82-7.7-.48-7.7,5.09v56.29c0,5.28,3.21,11.41,7.16,13.69l65.5,37.82,11.26,22.51.19-15.9,11.45,6.61c4,2.28,7.16-.14,7.16-5.42V133c0-5-2.89-10.82-6.62-13.36Z" transform="translate(-9 -7.91)"></path><path class="cls-62" d="M409.35,144.1l-19.62.44V140.8a1.21,1.21,0,0,1,.2-.73.86.86,0,0,1,.71-.26l11.38-.07a7,7,0,0,1,1.08.1,7.86,7.86,0,0,1,1.2.31c-.42-.36-.82-.72-1.2-1.09a14.13,14.13,0,0,1-1.08-1.16l-11.38-13.24a4.23,4.23,0,0,1-.71-1.07,2.55,2.55,0,0,1-.2-1v-3.72l19.62,23.07Z" transform="translate(-9 -7.91)"></path><path class="cls-62" d="M368.29,95.9l1.9,1.1a4.58,4.58,0,0,1,1.44,1.33,6.48,6.48,0,0,1,.94,2l15.24,52.61-1.9-1.1a5.08,5.08,0,0,1-1.43-1.32,6.24,6.24,0,0,1-1.05-2.13Z" transform="translate(-9 -7.91)"></path><path class="cls-62" d="M346.77,108v-2.17l19.6-.42v3.72a1.18,1.18,0,0,1-.2.75.87.87,0,0,1-.71.25l-11.38.1a4.69,4.69,0,0,1-1.05-.06,10.27,10.27,0,0,1-1.18-.29,15.15,15.15,0,0,1,1.18,1.06q.54.55,1.05,1.13l11.38,13.22a4.08,4.08,0,0,1,.71,1.08,2.62,2.62,0,0,1,.2,1v3.75Z" transform="translate(-9 -7.91)"></path><path class="cls-78" d="M163.28,11.09c13.89,8,24.63,27.54,25.16,43.57.24,7.36-2.33,14.3-6.18,17.19l-.61,14.54-8.1-13.82a23.56,23.56,0,0,1-10.28-3.38c-13.89-8-25.16-27.53-25.16-43.57,0-5.77-.1-9.69,2.41-12.76C145,7.4,154.39,6,163.28,11.09Z" transform="translate(-9 -7.91)"></path><path class="cls-79" d="M160.47,12.28c13.89,8,25.16,27.53,25.16,43.57,0,7.3-2.35,12.59-6.19,15.47l2.22,15.06L170.74,73.76a23.56,23.56,0,0,1-10.28-3.38c-13.89-8-25.16-27.53-25.16-43.57S146.57,4.26,160.47,12.28Z" transform="translate(-9 -7.91)"></path><path class="cls-62" d="M156.85,27.83q-.92-.53-1.41-.14a1.9,1.9,0,0,0-.49,1.55A14.87,14.87,0,0,0,155,30.8q.08.77.17,1.52t.17,1.48a13.13,13.13,0,0,1,.08,1.41,2.88,2.88,0,0,1-.14.93,1.64,1.64,0,0,1-.38.65,1.21,1.21,0,0,1-.6.32,1.64,1.64,0,0,1-.79,0A6,6,0,0,1,154.92,39a5.07,5.07,0,0,1,.52,2.18,10.68,10.68,0,0,1-.08,1.32q-.08.63-.17,1.28c-.06.43-.12.87-.17,1.33a12.41,12.41,0,0,0-.08,1.47,4.51,4.51,0,0,0,.49,2.11,3.59,3.59,0,0,0,1.41,1.48l.17.1a1.35,1.35,0,0,1,.38.38,1,1,0,0,1,.21.6V52.6l-.66-.38A9.14,9.14,0,0,1,155,50.77,8.39,8.39,0,0,1,153.68,49a7.87,7.87,0,0,1-.8-2,8.13,8.13,0,0,1-.27-2.06,9.38,9.38,0,0,1,.09-1.36q.09-.64.2-1.27t.2-1.26a9,9,0,0,0,.09-1.32,3.72,3.72,0,0,0-.39-1.68,2.94,2.94,0,0,0-1.2-1.25V35q.8.46,1.2.13a1.58,1.58,0,0,0,.39-1.24,11.35,11.35,0,0,0-.09-1.43c-.06-.49-.13-1-.2-1.49s-.14-1-.2-1.5a11.73,11.73,0,0,1-.09-1.46,5.05,5.05,0,0,1,.27-1.76,1.89,1.89,0,0,1,.8-1A2,2,0,0,1,155,25.1a5.73,5.73,0,0,1,1.91.76l.66.38v1.39c0,.22-.07.34-.21.36a.56.56,0,0,1-.38-.07Z" transform="translate(-9 -7.91)"></path><path class="cls-62" d="M169.34,47q-.81-.46-1.19-.13a1.57,1.57,0,0,0-.39,1.23,11.41,11.41,0,0,0,.09,1.43q.09.74.2,1.49t.2,1.5a12.14,12.14,0,0,1,.09,1.46,5,5,0,0,1-.27,1.76,1.87,1.87,0,0,1-.81,1,2,2,0,0,1-1.35.19,5.7,5.7,0,0,1-1.9-.75l-.67-.39V54.43c0-.22.07-.34.21-.36a.54.54,0,0,1,.37.06l.19.11q.91.52,1.41.15a1.84,1.84,0,0,0,.5-1.54,14.93,14.93,0,0,0-.08-1.56c-.05-.52-.11-1-.18-1.54s-.13-1-.18-1.49a12.63,12.63,0,0,1-.08-1.41,2.1,2.1,0,0,1,.52-1.58A1.39,1.39,0,0,1,167.4,45a5.3,5.3,0,0,1-.79-.86,6.08,6.08,0,0,1-.6-1,5.82,5.82,0,0,1-.39-1.09,4.57,4.57,0,0,1-.14-1.09,10.33,10.33,0,0,1,.08-1.32q.08-.63.18-1.28c.07-.43.13-.87.18-1.32a12.37,12.37,0,0,0,.08-1.48,4.52,4.52,0,0,0-.5-2.12,3.59,3.59,0,0,0-1.41-1.48l-.19-.11a1.44,1.44,0,0,1-.37-.37,1,1,0,0,1-.21-.6V29.46l.67.39a9.11,9.11,0,0,1,1.9,1.44A8.43,8.43,0,0,1,167.26,33a7.83,7.83,0,0,1,.81,2,8.14,8.14,0,0,1,.27,2.07,9.65,9.65,0,0,1-.09,1.36q-.09.64-.2,1.27t-.2,1.26a9,9,0,0,0-.09,1.32,3.74,3.74,0,0,0,.39,1.69,2.94,2.94,0,0,0,1.19,1.25Z" transform="translate(-9 -7.91)"></path><path class="cls-80" d="M455.61,261.8c-16.4.33-33.83-7.89-33.83-7.89s-2.24.37-6.57,3c0,0,8.68,36.26,12.93,52.12,6.7,25,20.9,51.24,20.9,51.24s26,1.55,34-19.52C487.91,328,489.44,293,489.44,293A193.13,193.13,0,0,1,455.61,261.8Z" transform="translate(-9 -7.91)"></path><path class="cls-81" d="M449,264.79c-16.4.33-33.83-7.89-33.83-7.89s1.45,36.78,6.36,55.11c6.7,25,27.47,48.25,27.47,48.25s20.77.74,27.47-16.53c4.91-12.66,6.36-47.77,6.36-47.77A193.16,193.16,0,0,1,449,264.79Z" transform="translate(-9 -7.91)"></path><polygon class="cls-62" points="435.58 311.07 422.38 289.62 427.61 285.98 436.2 299.93 456.69 295.12 461.17 305.06 435.58 311.07"></polygon><g class="cls-4"><path class="cls-5" d="M479.6,417.87c-15.14,8.84-39.63,9-54.69.26s-15-22.91.15-31.75,39.63-9,54.69-.26S494.74,409,479.6,417.87Z" transform="translate(-9 -7.91)"></path><path class="cls-82" d="M478.75,417.38c-14.67,8.56-38.4,8.68-53,.25s-14.53-22.2.14-30.76,38.4-8.68,53-.25S493.43,408.82,478.75,417.38Z" transform="translate(-9 -7.91)"></path><path class="cls-83" d="M477.91,416.9c-14.2,8.29-37.17,8.4-51.3.24s-14.07-21.49.14-29.78,37.17-8.4,51.3-.24S492.11,408.61,477.91,416.9Z" transform="translate(-9 -7.91)"></path><path class="cls-84" d="M477.06,416.41c-13.73,8-35.94,8.12-49.6.23s-13.6-20.78.13-28.79,35.94-8.12,49.6-.23S490.79,408.39,477.06,416.41Z" transform="translate(-9 -7.91)"></path><path class="cls-85" d="M476.21,415.92c-13.26,7.74-34.71,7.84-47.91.23s-13.13-20.07.13-27.81,34.71-7.84,47.91-.23S489.48,408.18,476.21,415.92Z" transform="translate(-9 -7.91)"></path><path class="cls-86" d="M475.37,415.43c-12.8,7.47-33.48,7.57-46.21.22s-12.67-19.36.13-26.82,33.48-7.57,46.21-.22S488.16,408,475.37,415.43Z" transform="translate(-9 -7.91)"></path><path class="cls-87" d="M474.52,414.94c-12.33,7.19-32.25,7.29-44.51.21s-12.2-18.65.12-25.84,32.25-7.29,44.51-.21S486.85,407.75,474.52,414.94Z" transform="translate(-9 -7.91)"></path><path class="cls-88" d="M473.68,414.45c-11.86,6.92-31,7-42.82.2s-11.74-17.94.12-24.85,31-7,42.82-.2S485.53,407.53,473.68,414.45Z" transform="translate(-9 -7.91)"></path><path class="cls-89" d="M472.83,414c-11.39,6.64-29.8,6.73-41.12.19s-11.27-17.22.11-23.87,29.8-6.73,41.12-.19S484.22,407.32,472.83,414Z" transform="translate(-9 -7.91)"></path><path class="cls-90" d="M472,413.48c-10.92,6.37-28.57,6.45-39.42.19s-10.81-16.51.11-22.88,28.57-6.45,39.42-.19S482.9,407.11,472,413.48Z" transform="translate(-9 -7.91)"></path><path class="cls-91" d="M471.14,413c-10.45,6.1-27.34,6.18-37.73.18s-10.34-15.8.1-21.9,27.34-6.18,37.73-.18S481.58,406.89,471.14,413Z" transform="translate(-9 -7.91)"></path><path class="cls-92" d="M470.29,412.5c-10,5.82-26.11,5.9-36,.17s-9.88-15.09.1-20.92,26.11-5.9,36-.17S480.27,406.68,470.29,412.5Z" transform="translate(-9 -7.91)"></path><path class="cls-93" d="M469.45,412c-9.51,5.55-24.88,5.62-34.33.16s-9.41-14.38.09-19.93,24.88-5.62,34.33-.16S479,406.46,469.45,412Z" transform="translate(-9 -7.91)"></path><path class="cls-94" d="M468.6,411.52c-9,5.27-23.65,5.34-32.64.15s-8.95-13.67.09-18.95,23.65-5.34,32.64-.15S477.64,406.25,468.6,411.52Z" transform="translate(-9 -7.91)"></path><path class="cls-95" d="M467.75,411c-8.57,5-22.42,5.07-30.94.15s-8.48-13,.08-18,22.42-5.07,30.94-.15S476.32,406,467.75,411Z" transform="translate(-9 -7.91)"></path><path class="cls-96" d="M466.91,410.55c-8.1,4.73-21.19,4.79-29.24.14s-8-12.25.08-17,21.19-4.79,29.24-.14S475,405.82,466.91,410.55Z" transform="translate(-9 -7.91)"></path><path class="cls-97" d="M466.06,410.06c-7.63,4.45-20,4.51-27.55.13s-7.55-11.54.07-16,20-4.51,27.55-.13S473.69,405.61,466.06,410.06Z" transform="translate(-9 -7.91)"></path><path class="cls-98" d="M465.22,409.57c-7.16,4.18-18.73,4.23-25.85.12s-7.09-10.83.07-15,18.73-4.23,25.85-.12S472.37,405.39,465.22,409.57Z" transform="translate(-9 -7.91)"></path><path class="cls-99" d="M464.37,409.08c-6.69,3.9-17.5,4-24.15.11s-6.62-10.12.07-14,17.5-4,24.15-.11S471.06,405.18,464.37,409.08Z" transform="translate(-9 -7.91)"></path><path class="cls-100" d="M463.52,408.59c-6.22,3.63-16.27,3.68-22.46.11s-6.16-9.41.06-13,16.27-3.68,22.46-.11S469.74,405,463.52,408.59Z" transform="translate(-9 -7.91)"></path><path class="cls-101" d="M462.68,408.1c-5.75,3.35-15,3.4-20.76.1s-5.69-8.7.06-12.05,15-3.4,20.76-.1S468.43,404.75,462.68,408.1Z" transform="translate(-9 -7.91)"></path><path class="cls-102" d="M461.83,407.62c-5.28,3.08-13.81,3.12-19.06.09s-5.23-8,.05-11.07,13.81-3.12,19.06-.09S467.11,404.53,461.83,407.62Z" transform="translate(-9 -7.91)"></path><path class="cls-103" d="M461,407.13c-4.81,2.81-12.59,2.84-17.37.08s-4.76-7.28,0-10.08,12.58-2.84,17.37-.08S465.8,404.32,461,407.13Z" transform="translate(-9 -7.91)"></path><path class="cls-104" d="M460.14,406.64c-4.34,2.53-11.36,2.57-15.67.07s-4.3-6.56,0-9.1,11.36-2.57,15.67-.07S464.48,404.11,460.14,406.64Z" transform="translate(-9 -7.91)"></path><path class="cls-105" d="M459.3,406.15a15.37,15.37,0,0,1-14,.07c-3.85-2.22-3.83-5.85,0-8.11a15.37,15.37,0,0,1,14-.07C463.18,400.26,463.16,403.89,459.3,406.15Z" transform="translate(-9 -7.91)"></path><path class="cls-106" d="M458.45,405.66a13.5,13.5,0,0,1-12.28.06c-3.38-2-3.37-5.14,0-7.13a13.5,13.5,0,0,1,12.28-.06C461.86,400.49,461.85,403.68,458.45,405.66Z" transform="translate(-9 -7.91)"></path><path class="cls-107" d="M457.6,405.17a11.64,11.64,0,0,1-10.58,0c-2.91-1.68-2.9-4.43,0-6.14a11.64,11.64,0,0,1,10.58,0C460.55,400.71,460.53,403.46,457.6,405.17Z" transform="translate(-9 -7.91)"></path><path class="cls-108" d="M456.76,404.69a9.77,9.77,0,0,1-8.89,0c-2.45-1.41-2.44-3.72,0-5.16a9.77,9.77,0,0,1,8.88,0C459.23,400.94,459.22,403.25,456.76,404.69Z" transform="translate(-9 -7.91)"></path><path class="cls-109" d="M455.91,404.2a7.91,7.91,0,0,1-7.19,0c-2-1.14-2-3,0-4.17a7.91,7.91,0,0,1,7.19,0C457.91,401.17,457.9,403,455.91,404.2Z" transform="translate(-9 -7.91)"></path><path class="cls-110" d="M455.07,403.71a6,6,0,0,1-5.49,0c-1.51-.87-1.51-2.3,0-3.19a6,6,0,0,1,5.49,0C456.59,401.39,456.59,402.82,455.07,403.71Z" transform="translate(-9 -7.91)"></path><path class="cls-111" d="M454.22,403.22a4.17,4.17,0,0,1-3.8,0,1.16,1.16,0,0,1,0-2.2,4.17,4.17,0,0,1,3.8,0A1.16,1.16,0,0,1,454.22,403.22Z" transform="translate(-9 -7.91)"></path><path class="cls-56" d="M453.37,402.73a2.31,2.31,0,0,1-2.1,0,.64.64,0,0,1,0-1.22,2.31,2.31,0,0,1,2.1,0A.64.64,0,0,1,453.37,402.73Z" transform="translate(-9 -7.91)"></path></g><g class="cls-3"><path class="cls-112" d="M39,243.43h0a1,1,0,0,0,.08-.43l0-5.58,6.84-4,0,5.58h0s0,0,0,.05v.27l0,.06,0,.05h0l0,.07a.54.54,0,0,1-.18.18l-6.84,4A.57.57,0,0,0,39,243.43Z" transform="translate(-9 -7.91)"></path><path class="cls-113" d="M11.37,195.58a.57.57,0,0,0-.34.07l6.84-4,.09,0,.07,0h.39l0,0,0,0,0,0,0,0,0,0,4.86,2.8-6.84,4-4.86-2.8a1.06,1.06,0,0,0-.42-.15Z" transform="translate(-9 -7.91)"></path><polygon class="cls-114" points="16.83 196.18 23.68 192.2 23.53 192.43 16.68 196.4 16.83 196.18"></polygon><polygon class="cls-115" points="17.08 195.89 23.92 191.91 23.68 192.2 16.83 196.18 17.08 195.89"></polygon><g class="cls-3"><path class="cls-1" d="M26.52,203.32l6.84-4a2.28,2.28,0,0,0-.44.49l-6.84,4A2.28,2.28,0,0,1,26.52,203.32Z" transform="translate(-9 -7.91)"></path><g class="cls-116"><g class="cls-3"><path class="cls-1" d="M26.52,203.32l6.84-4a2.28,2.28,0,0,0-.44.49l-6.84,4a2.28,2.28,0,0,1,.44-.49" transform="translate(-9 -7.91)"></path></g></g></g><polygon class="cls-117" points="17.7 195.23 24.55 191.25 24.36 191.43 17.52 195.41 17.7 195.23"></polygon><g class="cls-3"><path class="cls-2" d="M27.35,202.67l6.84-4a3.88,3.88,0,0,0-.64.46l-6.84,4A3.89,3.89,0,0,1,27.35,202.67Z" transform="translate(-9 -7.91)"></path><g class="cls-118"><g class="cls-3"><path class="cls-2" d="M27.35,202.67l6.84-4a3.88,3.88,0,0,0-.64.46l-6.84,4a3.89,3.89,0,0,1,.64-.46" transform="translate(-9 -7.91)"></path></g></g></g><path class="cls-119" d="M14.78,217.35l6.84-4,3.21-1.83,0-.21,0-.28v0l0-.21c0-.08,0-.15,0-.23s0-.16,0-.24,0-.17,0-.25h0l0-.23c0-.23,0-.47,0-.7s0-.22,0-.32v0c0-.13,0-.26,0-.39s0-.4,0-.59l0-.2v-.05c0-.08,0-.15,0-.23s0-.16,0-.24,0-.2.06-.3h0l0-.24L25,206l.08-.31,0-.1c.08-.21.17-.42.26-.61l.08-.17.27-.51,6.84-4-.27.51-.08.17c-.1.23-.21.47-.29.71l-.08.31-.15.56,0,.24a5.32,5.32,0,0,0-.13.83l0,.2c0,.32,0,.64,0,1s0,.68,0,1l0,.23a7.84,7.84,0,0,0,.12,1l0,.28.14.72.08.4c.08.36.18.7.29,1l.08.29.27.8.14.39.25.57a10.27,10.27,0,0,0,.43,1l.19.39c.21.44.45.87.7,1.3v0c.25.43.52.86.79,1.28l.25.36c.21.29.41.6.62.86l.39.51.27.32.56.63.21.21c.25.26.5.52.76.77l.31.27.56.49.23.18a8,8,0,0,0,.78.6l.19.13c.29.19.58.38.87.55s.6.32.87.45l.21.1a5.86,5.86,0,0,0,.79.31l.23.08.56.16.31.08c.25,0,.52.08.77.11h.19l.58,0,.25,0,.39-.06a1.75,1.75,0,0,0,.3,0l.34-.08.25-.07a5,5,0,0,0,.83-.38l-6.84,4a5,5,0,0,1-.83.38l-.25.07-.34.08-.07,0-.18,0h-.05l-.39.06-.25,0-.58,0h-.19l-.34,0-.43-.07-.31-.08-.56-.16-.23-.08-.19-.06-.23-.09-.22-.09-.15-.07-.21-.1-.16-.08-.47-.24-.24-.13-.06,0-.34-.21-.46-.3-.19-.13-.09-.06-.22-.16-.21-.16-.2-.16-.07-.06-.23-.18-.56-.49-.31-.27-.1-.09-.26-.26-.4-.42-.21-.21-.56-.63-.27-.32-.39-.51-.13-.17-.49-.69-.25-.36c-.28-.42-.54-.84-.79-1.27h0l0,0c-.13-.22-.26-.45-.38-.68l-.23-.45-.08-.16-.19-.39-.12-.26-.1-.22-.08-.2-.07-.18,0-.13L25.8,215l-.14-.39-.27-.8-.08-.28-.16-.56-.09-.33,0-.16-.08-.4-.1-.51-6.62,3.84Z" transform="translate(-9 -7.91)"></path><path class="cls-120" d="M53.83,240.78h0a1.86,1.86,0,0,0-.08-.51h0a2.61,2.61,0,0,0-.24-.55l-3.42-5.92,6.84-4,3.42,5.92,0,.08,0,.07,0,.06,0,.05,0,.05,0,.05,0,.05,0,.06,0,.06h0v0l0,.06v.41h0v.32l0,.06v0h0v0l0,.07a.53.53,0,0,1-.18.18l-6.84,4a.56.56,0,0,0,.23-.27h0A1,1,0,0,0,53.83,240.78Z" transform="translate(-9 -7.91)"></path><path class="cls-121" d="M14.87,187.27l6.84-4,5.51-3.12,0,0,.09,0,.07,0h.38l0,0,0,0,0,0,0,0,0,0h0l0,0,0,0,0,0,0,0,0,0,0,0,0,0,0,0,0,0h0l0,0,0,0,0,0,0,.06.06.09.09.15,0,0L32.19,187l-6.84,4L21.91,185a2.44,2.44,0,0,0-.35-.48h0a1.79,1.79,0,0,0-.4-.33,1,1,0,0,0-.39-.14h0a.56.56,0,0,0-.35.07h0Z" transform="translate(-9 -7.91)"></path><path class="cls-122" d="M50.44,233.24q.23-.37.43-.78l.12-.24c.12-.25.23-.52.33-.79l.08-.2c.1-.27.19-.55.27-.83l.06-.19,6.84-4h0l-.06.19c-.08.28-.17.55-.27.81v0l-.08.19c-.1.26-.21.52-.32.77l0,.07-.09.17q-.2.41-.43.78l-.09.16-.26.39-6.84,4C50.21,233.62,50.33,233.43,50.44,233.24Z" transform="translate(-9 -7.91)"></path><path class="cls-123" d="M28.34,191.13l-.27,0-.65-.09-.3,0-.63,0h-.27c-.29,0-.58,0-.86,0l6.84-4q.37,0,.76,0h.78l.23,0,.3,0,.25,0,.4.07.27,0,.11,0,.81.18h0l-6.84,4h0C29,191.25,28.65,191.19,28.34,191.13Z" transform="translate(-9 -7.91)"></path><path class="cls-124" d="M41.17,199c-.63-.66-1.28-1.3-2-1.9l6.84-4,.81.76.78.77L48,195l.13.13.23.24.65.72.6.7.36.44-6.84,4c-.59-.73-1.21-1.43-1.84-2.11Z" transform="translate(-9 -7.91)"></path><path class="cls-125" d="M51.05,216c-.26-.89-.56-1.78-.9-2.66l6.84-4h0l.26.69q.15.41.28.81t.28.87l.08.29,0,.14.15.5q.14.49.26,1t.24,1l0,.15,4.86,2.8-6.84,4-4.86-2.8q-.28-1.32-.67-2.65Z" transform="translate(-9 -7.91)"></path><path class="cls-126" d="M30,185a.57.57,0,0,0-.34.07l6.84-4,.09,0,.07,0H37l0,0,0,0,0,0,0,0,0,0,7.79,4.5-6.84,4-7.79-4.5A1.05,1.05,0,0,0,30,185Z" transform="translate(-9 -7.91)"></path><path class="cls-127" d="M57.59,232.85h0a1,1,0,0,0,.08-.43l0-9a1.85,1.85,0,0,0-.08-.53h0a2.47,2.47,0,0,0-.23-.52h0a2.47,2.47,0,0,0-.34-.46h0a1.88,1.88,0,0,0-.42-.34l6.84-4h0l0,0,0,0,0,0,0,0,0,0,0,0,0,0,0,0,0,0h0l0,0,0,0,0,.05,0,.06.07.1.08.13h0l0,.07,0,.06,0,.06,0,.05,0,.05,0,.05,0,.05,0,.05,0,.06h0v0l0,.06v.43l0,9h0s0,0,0,.05v.27l0,.06,0,.05h0l0,.07a.54.54,0,0,1-.18.18l-6.84,4h0A.57.57,0,0,0,57.59,232.85Z" transform="translate(-9 -7.91)"></path><path class="cls-128" d="M39.16,191h0a2.46,2.46,0,0,0-.23-.52h0a2.48,2.48,0,0,0-.34-.46h0a1.88,1.88,0,0,0-.42-.34l6.84-4h0l0,0,0,0,0,0,0,0,0,0,0,0,0,0,0,0,0,0h0l0,0,0,0,0,.05,0,.06.07.1.08.13v0h0l0,.07,0,.06,0,.06,0,.05,0,.05,0,.05,0,.05,0,.05,0,.06v0h0v0l0,.06v.33s0,0,0,.05,0,0,0,0l0,5.58-6.84,4,0-5.58A1.85,1.85,0,0,0,39.16,191Z" transform="translate(-9 -7.91)"></path><polygon class="cls-129" points="34.15 193.31 40.99 189.33 44.43 187.37 37.59 191.34 34.15 193.31"></polygon><path class="cls-130" d="M47.35,199.32a1,1,0,0,0-.4-.14h0a.6.6,0,0,0-.36.07l6.84-4,.09,0,.08,0H54l0,0,0,0,0,0,0,0,0,0h0l0,0,0,0,0,0,0,0,0,0,0,0,0,0,0,0,0,0h0l0,0,0,0,0,.05,0,.06.07.09.1.16h0l5.48,9.49v0l.05.1,0,.06,0,.06,0,0,0,0,0,.05,0,.05,0,.05,0,.05h0V207l0,.06,0,.05h0l0,.07a.56.56,0,0,1-.2.19l-6.84,4h0a.6.6,0,0,0,.24-.27h0a1.72,1.72,0,0,0-.24-1.48l-5.48-9.49a2.62,2.62,0,0,0-.36-.49h0A1.81,1.81,0,0,0,47.35,199.32Z" transform="translate(-9 -7.91)"></path><path class="cls-131" d="M56.63,221.6a2.34,2.34,0,0,1,1.07,1.86l0,9c0,.69-.48,1-1.08.61l-4.86-2.8a11.88,11.88,0,0,1-1.65,3.57l3.42,5.92c.43.75.43,1.53,0,1.76L48,244.64a.8.8,0,0,1-.77-.09,2.25,2.25,0,0,1-.76-.8L43,237.83a12.82,12.82,0,0,1-3.93-.42l0,5.58c0,.69-.48,1-1.08.61l-7.79-4.5a2.34,2.34,0,0,1-1.07-1.86l0-5.58a38,38,0,0,1-3.92-4.12l-3.46,1.95a.76.76,0,0,1-.76-.08,2.16,2.16,0,0,1-.75-.79l-5.5-9.53c-.41-.71-.41-1.5,0-1.76l3.44-2a37.75,37.75,0,0,1-1.6-5.44l-4.86-2.8a2.34,2.34,0,0,1-1.07-1.86l0-9c0-.69.48-1,1.08-.61l4.86,2.8a12.61,12.61,0,0,1,1.62-3.58L14.86,189c-.41-.74-.41-1.52,0-1.76l5.54-3.13a.73.73,0,0,1,.76.06,2.13,2.13,0,0,1,.75.81l3.44,5.93a12.07,12.07,0,0,1,3.93.39l0-5.58c0-.69.48-1,1.08-.61l7.79,4.5a2.34,2.34,0,0,1,1.07,1.86l0,5.58a36.2,36.2,0,0,1,3.92,4.14l3.44-2a.76.76,0,0,1,.77.07,2.21,2.21,0,0,1,.76.82l5.48,9.49c.43.73.43,1.51,0,1.76l-3.44,2a36,36,0,0,1,1.62,5.45Zm-12.85-.69c0-.32,0-.64,0-1s0-.7,0-1l0-.23c0-.33-.06-.63-.12-1l0-.29-.14-.72-.1-.42c-.08-.33-.16-.69-.27-1L43,215l-.29-.83-.14-.37-.23-.58c-.14-.34-.29-.67-.43-1l-.19-.39a25.31,25.31,0,0,0-1.5-2.6l-.25-.36c-.21-.29-.41-.57-.64-.87l-.39-.49-.25-.31-.58-.67-.19-.2c-.25-.26-.52-.54-.76-.77l-.31-.27-.56-.49-.23-.18a9.2,9.2,0,0,0-.78-.6l-.19-.13c-.29-.19-.58-.38-.89-.56s-.58-.31-.87-.45l-.19-.08a5,5,0,0,0-.79-.31l-.23-.08-.56-.16-.31-.08a6.15,6.15,0,0,0-.77-.11l-.21,0h-.83l-.39,0-.62.14-.25.07a4.5,4.5,0,0,0-1.51.86l-.19.18a2.28,2.28,0,0,0-.44.49l-.25.28-.15.23-.27.51-.08.17c-.1.23-.21.47-.29.71L25,206l-.15.56,0,.24a5.27,5.27,0,0,0-.13.83l0,.2c0,.32,0,.64,0,1s0,.68,0,1l0,.23a7.8,7.8,0,0,0,.12,1l0,.28.14.72.08.4c.08.36.18.7.29,1l.08.28.27.8.14.39.25.57a10.27,10.27,0,0,0,.43,1l.19.39a22.93,22.93,0,0,0,1.5,2.6l.25.36c.21.29.41.59.62.86l.39.51.27.32.56.63.21.21c.25.26.5.52.76.77l.31.27.56.49.23.18a7.89,7.89,0,0,0,.78.6l.19.13c.29.19.58.38.87.55s.6.32.87.45l.21.1a5.8,5.8,0,0,0,.79.31l.23.08.56.16.31.08c.25,0,.52.08.77.11h.19l.58,0,.25,0,.39-.06a3.67,3.67,0,0,0,.64-.13l.25-.07a5,5,0,0,0,1.51-.86l.19-.18c.15-.15.29-.31.44-.49l.23-.3.15-.23L43,224l.08-.19a6.24,6.24,0,0,0,.27-.72l.1-.3.15-.56,0-.24c.06-.25.08-.55.13-.83l0-.2" transform="translate(-9 -7.91)"></path></g><g class="cls-4"><path class="cls-5" d="M59.58,284.79c-11.62,6.78-30.4,6.87-41.95.2s-11.5-17.57.11-24.35,30.4-6.87,41.95-.2S71.2,278,59.58,284.79Z" transform="translate(-9 -7.91)"></path><path class="cls-82" d="M58.93,284.41c-11.25,6.57-29.45,6.65-40.65.19s-11.14-17,.11-23.59,29.45-6.65,40.65-.19S70.19,277.84,58.93,284.41Z" transform="translate(-9 -7.91)"></path><path class="cls-83" d="M58.28,284c-10.89,6.36-28.51,6.44-39.34.19S8.15,267.74,19,261.39s28.51-6.44,39.34-.19S69.17,277.68,58.28,284Z" transform="translate(-9 -7.91)"></path><path class="cls-84" d="M57.63,283.66c-10.53,6.15-27.56,6.23-38,.18s-10.43-15.93.1-22.08,27.56-6.23,38-.18S68.16,277.52,57.63,283.66Z" transform="translate(-9 -7.91)"></path><path class="cls-85" d="M57,283.29c-10.17,5.94-26.62,6-36.73.17s-10.07-15.39.1-21.32,26.62-6,36.73-.17S67.15,277.35,57,283.29Z" transform="translate(-9 -7.91)"></path><path class="cls-86" d="M56.33,282.91c-9.81,5.73-25.67,5.8-35.43.17s-9.71-14.84.1-20.57,25.67-5.8,35.43-.17S66.14,277.19,56.33,282.91Z" transform="translate(-9 -7.91)"></path><path class="cls-87" d="M55.68,282.54c-9.45,5.51-24.73,5.59-34.13.16s-9.36-14.3.09-19.81,24.73-5.59,34.13-.16S65.13,277,55.68,282.54Z" transform="translate(-9 -7.91)"></path><path class="cls-88" d="M55,282.16c-9.09,5.3-23.78,5.37-32.82.15s-9-13.75.09-19.05,23.78-5.37,32.82-.15S64.12,276.86,55,282.16Z" transform="translate(-9 -7.91)"></path><path class="cls-89" d="M54.38,281.79c-8.73,5.09-22.84,5.16-31.52.15s-8.64-13.2.09-18.3,22.84-5.16,31.52-.15S63.11,276.69,54.38,281.79Z" transform="translate(-9 -7.91)"></path><path class="cls-90" d="M53.73,281.41c-8.37,4.88-21.89,4.95-30.21.14S15.23,268.9,23.6,264s21.89-4.95,30.21-.14S62.1,276.53,53.73,281.41Z" transform="translate(-9 -7.91)"></path><path class="cls-91" d="M53.08,281c-8,4.67-20.95,4.73-28.91.14s-7.93-12.11.08-16.78,20.95-4.73,28.91-.14S61.08,276.36,53.08,281Z" transform="translate(-9 -7.91)"></path><path class="cls-92" d="M52.43,280.66c-7.64,4.46-20,4.52-27.61.13s-7.57-11.56.08-16,20-4.52,27.61-.13S60.07,276.2,52.43,280.66Z" transform="translate(-9 -7.91)"></path><path class="cls-93" d="M51.78,280.28c-7.28,4.25-19.06,4.31-26.3.12s-7.21-11,.07-15.27,19.06-4.31,26.3-.12S59.06,276,51.78,280.28Z" transform="translate(-9 -7.91)"></path><path class="cls-94" d="M51.13,279.91c-6.92,4-18.11,4.09-25,.12s-6.85-10.47.07-14.51,18.11-4.09,25-.12S58,275.87,51.13,279.91Z" transform="translate(-9 -7.91)"></path><path class="cls-95" d="M50.48,279.53c-6.56,3.83-17.17,3.88-23.69.11s-6.5-9.93.06-13.75S44,262,50.54,265.78,57,275.7,50.48,279.53Z" transform="translate(-9 -7.91)"></path><path class="cls-96" d="M49.83,279.16c-6.2,3.62-16.22,3.67-22.39.11s-6.14-9.38.06-13,16.22-3.67,22.39-.11S56,275.54,49.83,279.16Z" transform="translate(-9 -7.91)"></path><path class="cls-97" d="M49.18,278.78c-5.84,3.41-15.28,3.45-21.09.1s-5.78-8.83.06-12.24,15.28-3.45,21.09-.1S55,275.37,49.18,278.78Z" transform="translate(-9 -7.91)"></path><path class="cls-98" d="M48.53,278.41c-5.48,3.2-14.33,3.24-19.78.09s-5.42-8.29.05-11.48,14.33-3.24,19.78-.09S54,275.21,48.53,278.41Z" transform="translate(-9 -7.91)"></path><path class="cls-99" d="M47.88,278c-5.12,3-13.39,3-18.48.09s-5.07-7.74.05-10.73,13.39-3,18.48-.09S53,275,47.88,278Z" transform="translate(-9 -7.91)"></path><path class="cls-100" d="M47.23,277.66c-4.76,2.78-12.44,2.81-17.17.08s-4.71-7.19,0-10,12.44-2.81,17.17-.08S52,274.88,47.23,277.66Z" transform="translate(-9 -7.91)"></path><path class="cls-101" d="M46.58,277.28c-4.39,2.56-11.5,2.6-15.87.07s-4.35-6.65,0-9.21,11.5-2.6,15.87-.07S51,274.72,46.58,277.28Z" transform="translate(-9 -7.91)"></path><path class="cls-102" d="M45.93,276.91a16,16,0,0,1-14.57.07c-4-2.32-4-6.1,0-8.46A16,16,0,0,1,46,268.45C50,270.77,50,274.55,45.93,276.91Z" transform="translate(-9 -7.91)"></path><path class="cls-103" d="M45.28,276.53a14.59,14.59,0,0,1-13.26.06c-3.65-2.11-3.64-5.56,0-7.7a14.59,14.59,0,0,1,13.26-.06C49,270.94,48.95,274.39,45.28,276.53Z" transform="translate(-9 -7.91)"></path><path class="cls-104" d="M44.63,276.15a13.15,13.15,0,0,1-12,.06c-3.29-1.9-3.28-5,0-6.94a13.15,13.15,0,0,1,12-.06C48,271.11,47.94,274.22,44.63,276.15Z" transform="translate(-9 -7.91)"></path><path class="cls-105" d="M44,275.78a11.72,11.72,0,0,1-10.65.05c-2.93-1.69-2.92-4.46,0-6.18A11.72,11.72,0,0,1,44,269.59C46.94,271.29,46.93,274.06,44,275.78Z" transform="translate(-9 -7.91)"></path><path class="cls-106" d="M43.33,275.4a10.28,10.28,0,0,1-9.35,0c-2.57-1.49-2.56-3.92,0-5.43a10.28,10.28,0,0,1,9.35,0C45.93,271.46,45.91,273.89,43.33,275.4Z" transform="translate(-9 -7.91)"></path><path class="cls-107" d="M42.68,275a8.85,8.85,0,0,1-8,0c-2.22-1.28-2.21-3.37,0-4.67a8.85,8.85,0,0,1,8,0C44.91,271.64,44.9,273.73,42.68,275Z" transform="translate(-9 -7.91)"></path><path class="cls-108" d="M42,274.65a7.42,7.42,0,0,1-6.74,0c-1.86-1.07-1.85-2.82,0-3.91a7.42,7.42,0,0,1,6.74,0C43.9,271.81,43.89,273.56,42,274.65Z" transform="translate(-9 -7.91)"></path><path class="cls-109" d="M41.38,274.28a6,6,0,0,1-5.44,0c-1.5-.86-1.49-2.28,0-3.16a6,6,0,0,1,5.44,0C42.89,272,42.88,273.4,41.38,274.28Z" transform="translate(-9 -7.91)"></path><path class="cls-110" d="M40.72,273.9a4.55,4.55,0,0,1-4.13,0,1.27,1.27,0,0,1,0-2.4,4.55,4.55,0,0,1,4.13,0A1.27,1.27,0,0,1,40.72,273.9Z" transform="translate(-9 -7.91)"></path><path class="cls-111" d="M40.07,273.53a3.11,3.11,0,0,1-2.83,0,.87.87,0,0,1,0-1.64,3.11,3.11,0,0,1,2.83,0A.87.87,0,0,1,40.07,273.53Z" transform="translate(-9 -7.91)"></path><path class="cls-56" d="M39.42,273.15a1.68,1.68,0,0,1-1.53,0,.47.47,0,0,1,0-.89,1.68,1.68,0,0,1,1.53,0A.47.47,0,0,1,39.42,273.15Z" transform="translate(-9 -7.91)"></path></g></g></g></svg>