<svg xmlns="http://www.w3.org/2000/svg" xmlns:xlink="http://www.w3.org/1999/xlink" viewBox="0 0 423.91 491.07"><defs><style>.cls-1{isolation:isolate;}.cls-10,.cls-11,.cls-12,.cls-13,.cls-14,.cls-15,.cls-16,.cls-17,.cls-18,.cls-19,.cls-2,.cls-20,.cls-21,.cls-22,.cls-23,.cls-24,.cls-25,.cls-26,.cls-27,.cls-28,.cls-29,.cls-3,.cls-30,.cls-31,.cls-32,.cls-33,.cls-34,.cls-35,.cls-36,.cls-37,.cls-38,.cls-39,.cls-4,.cls-40,.cls-41,.cls-42,.cls-43,.cls-44,.cls-45,.cls-46,.cls-47,.cls-48,.cls-49,.cls-5,.cls-50,.cls-51,.cls-52,.cls-53,.cls-54,.cls-55,.cls-56,.cls-57,.cls-58,.cls-59,.cls-6,.cls-60,.cls-61,.cls-62,.cls-63,.cls-64,.cls-65,.cls-66,.cls-67,.cls-68,.cls-69,.cls-7,.cls-70,.cls-71,.cls-72,.cls-73,.cls-74,.cls-75,.cls-76,.cls-77,.cls-8,.cls-9{fill-rule:evenodd;}.cls-2{fill:url(#linear-gradient);}.cls-3{fill:#e23b93;}.cls-4{fill:#f2f4ff;}.cls-5{fill:#c5dbf1;}.cls-6{fill:#dce8f8;}.cls-7{fill:url(#linear-gradient-2);}.cls-8{fill:#fb84b6;}.cls-9{fill:url(#linear-gradient-3);}.cls-10,.cls-27{fill:#fff;}.cls-11{fill:#9e9bf5;}.cls-11,.cls-16,.cls-17,.cls-24,.cls-27,.cls-28,.cls-32,.cls-77{opacity:0.5;}.cls-11,.cls-17,.cls-24,.cls-28,.cls-32,.cls-43,.cls-54,.cls-66,.cls-77{mix-blend-mode:multiply;}.cls-12{fill:url(#linear-gradient-4);}.cls-13{fill:url(#linear-gradient-5);}.cls-14{fill:#485af4;}.cls-15,.cls-16{fill:#6bb6ff;}.cls-17{fill:url(#linear-gradient-6);}.cls-18{fill:url(#linear-gradient-7);}.cls-19{fill:url(#linear-gradient-8);}.cls-20{fill:url(#linear-gradient-9);}.cls-21{fill:url(#linear-gradient-10);}.cls-22{fill:url(#linear-gradient-11);}.cls-23{fill:#9ed7fa;}.cls-24{fill:url(#GradientFill_11);}.cls-25{fill:url(#linear-gradient-12);}.cls-26{fill:#a67ef6;}.cls-26,.cls-30{opacity:0.25;}.cls-28{fill:url(#GradientFill_11-2);}.cls-29{fill:url(#linear-gradient-13);}.cls-30,.cls-31{fill:#f786dc;}.cls-32{fill:#955cf1;}.cls-33{fill:url(#linear-gradient-14);}.cls-34{fill:#273087;}.cls-35{fill:url(#linear-gradient-15);}.cls-36{fill:url(#linear-gradient-16);}.cls-37{fill:url(#linear-gradient-17);}.cls-38{fill:#f58c7e;}.cls-39{fill:url(#linear-gradient-18);}.cls-40{fill:url(#linear-gradient-19);}.cls-41{fill:#ffa698;}.cls-42{fill:url(#linear-gradient-20);}.cls-43{fill:#f969ac;}.cls-43,.cls-66{opacity:0.35;}.cls-44{fill:url(#linear-gradient-21);}.cls-45{fill:#ff7b7b;}.cls-46{fill:url(#linear-gradient-22);}.cls-47{fill:url(#linear-gradient-23);}.cls-48{fill:#ff8f7f;}.cls-49{fill:url(#linear-gradient-24);}.cls-50{fill:url(#linear-gradient-25);}.cls-51{fill:#8141e7;}.cls-52{fill:url(#linear-gradient-26);}.cls-53{fill:url(#linear-gradient-27);}.cls-54{fill:#1e2353;opacity:0.3;}.cls-55{fill:#ffa495;}.cls-56{fill:#193161;}.cls-57{fill:url(#linear-gradient-28);}.cls-58{fill:#161d5c;}.cls-59{fill:url(#linear-gradient-29);}.cls-60{fill:url(#linear-gradient-30);}.cls-61{fill:url(#linear-gradient-31);}.cls-62{fill:#ff9281;}.cls-63{fill:url(#linear-gradient-32);}.cls-64{fill:url(#linear-gradient-33);}.cls-65{fill:url(#linear-gradient-34);}.cls-66{fill:#3469c0;}.cls-67{fill:url(#linear-gradient-35);}.cls-68{fill:#4a9ff8;}.cls-69{fill:url(#linear-gradient-36);}.cls-70{fill:#ffb49c;}.cls-71{fill:#ff9d8e;}.cls-72{fill:#562e65;}.cls-73{fill:url(#linear-gradient-37);}.cls-74{fill:#ff9584;}.cls-75{fill:url(#linear-gradient-38);}.cls-76{fill:url(#linear-gradient-39);}.cls-77{fill:url(#linear-gradient-40);}</style><linearGradient id="linear-gradient" x1="441.85" y1="126.23" x2="418.04" y2="97.78" gradientUnits="userSpaceOnUse"><stop offset="0" stop-color="#fa5db1"></stop><stop offset="1" stop-color="#febfbf"></stop></linearGradient><linearGradient id="linear-gradient-2" x1="445.18" y1="142.33" x2="397.85" y2="106.72" xlink:href="#linear-gradient"></linearGradient><linearGradient id="linear-gradient-3" x1="331.95" y1="11.95" x2="321" y2="53.07" xlink:href="#linear-gradient"></linearGradient><linearGradient id="linear-gradient-4" x1="335.16" y1="151.75" x2="271.96" y2="369.59" gradientUnits="userSpaceOnUse"><stop offset="0" stop-color="#d1e8ff"></stop><stop offset="1" stop-color="#eaefff"></stop></linearGradient><linearGradient id="linear-gradient-5" x1="270.13" y1="260.54" x2="404.82" y2="158.28" gradientUnits="userSpaceOnUse"><stop offset="0" stop-color="#6d6afe"></stop><stop offset="1" stop-color="#3fb0f7"></stop></linearGradient><linearGradient id="linear-gradient-6" x1="329.83" y1="339.18" x2="134.23" y2="167.27" xlink:href="#linear-gradient-5"></linearGradient><linearGradient id="linear-gradient-7" x1="315.07" y1="404.8" x2="306.26" y2="266.58" xlink:href="#linear-gradient-4"></linearGradient><linearGradient id="linear-gradient-8" x1="318.34" y1="298.68" x2="292.97" y2="344.05" xlink:href="#linear-gradient-4"></linearGradient><linearGradient id="linear-gradient-9" x1="299.76" y1="369.69" x2="305.66" y2="356.61" xlink:href="#linear-gradient-5"></linearGradient><linearGradient id="linear-gradient-10" x1="343.13" y1="341.55" x2="331.31" y2="336.88" xlink:href="#linear-gradient-5"></linearGradient><linearGradient id="linear-gradient-11" x1="343.13" y1="363.49" x2="331.31" y2="358.81" xlink:href="#linear-gradient-5"></linearGradient><linearGradient id="GradientFill_11" x1="362.53" y1="153.37" x2="370.05" y2="259.94" gradientUnits="userSpaceOnUse"><stop offset="0" stop-color="#d870ac"></stop><stop offset="1" stop-color="#58469c"></stop></linearGradient><linearGradient id="linear-gradient-12" x1="385.39" y1="247.38" x2="408.29" y2="168.41" gradientUnits="userSpaceOnUse"><stop offset="0" stop-color="#a77ef7"></stop><stop offset="1" stop-color="#5e65d6"></stop></linearGradient><linearGradient id="GradientFill_11-2" x1="247.62" y1="62.83" x2="254.4" y2="159.25" xlink:href="#GradientFill_11"></linearGradient><linearGradient id="linear-gradient-13" x1="232.6" y1="35.04" x2="212.14" y2="126.75" gradientUnits="userSpaceOnUse"><stop offset="0" stop-color="#965cf2"></stop><stop offset="1" stop-color="#ff8adc"></stop></linearGradient><linearGradient id="linear-gradient-14" x1="98.29" y1="256.9" x2="111.61" y2="279.7" gradientUnits="userSpaceOnUse"><stop offset="0" stop-color="#ff8a78"></stop><stop offset="1" stop-color="#ffa799"></stop></linearGradient><linearGradient id="linear-gradient-15" x1="97.61" y1="277.25" x2="77.15" y2="266.12" gradientUnits="userSpaceOnUse"><stop offset="0" stop-color="#ffb89e"></stop><stop offset="1" stop-color="#ffa799"></stop></linearGradient><linearGradient id="linear-gradient-16" x1="112.93" y1="224.04" x2="86.44" y2="235.69" gradientUnits="userSpaceOnUse"><stop offset="0" stop-color="#3e4795"></stop><stop offset="1" stop-color="#273088"></stop></linearGradient><linearGradient id="linear-gradient-17" x1="82.83" y1="118.94" x2="75.64" y2="146.28" gradientUnits="userSpaceOnUse"><stop offset="0" stop-color="#5a2d68"></stop><stop offset="1" stop-color="#22043d"></stop></linearGradient><linearGradient id="linear-gradient-18" x1="99.59" y1="119.64" x2="92.93" y2="135.47" xlink:href="#linear-gradient-17"></linearGradient><linearGradient id="linear-gradient-19" x1="160.64" y1="164.2" x2="159.99" y2="161.83" xlink:href="#linear-gradient-14"></linearGradient><linearGradient id="linear-gradient-20" x1="110.35" y1="169.64" x2="131.2" y2="156.74" gradientUnits="userSpaceOnUse"><stop offset="0" stop-color="#fa79b6"></stop><stop offset="1" stop-color="#ffbfbf"></stop></linearGradient><linearGradient id="linear-gradient-21" x1="85.22" y1="190.76" x2="128.13" y2="154.66" xlink:href="#linear-gradient-20"></linearGradient><linearGradient id="linear-gradient-22" x1="98.38" y1="142" x2="97.65" y2="145.62" xlink:href="#linear-gradient-14"></linearGradient><linearGradient id="linear-gradient-23" x1="111.24" y1="127.91" x2="105.67" y2="136.93" xlink:href="#linear-gradient-15"></linearGradient><linearGradient id="linear-gradient-24" x1="83.44" y1="210.66" x2="82.29" y2="212.25" xlink:href="#linear-gradient-15"></linearGradient><linearGradient id="linear-gradient-25" x1="65.17" y1="185.36" x2="140.78" y2="156.8" xlink:href="#linear-gradient-20"></linearGradient><linearGradient id="linear-gradient-26" x1="145.12" y1="473.23" x2="182.3" y2="438.9" xlink:href="#linear-gradient-13"></linearGradient><linearGradient id="linear-gradient-27" x1="214.87" y1="374.56" x2="192.03" y2="410.43" gradientUnits="userSpaceOnUse"><stop offset="0" stop-color="#235da3"></stop><stop offset="1" stop-color="#123a76"></stop></linearGradient><linearGradient id="linear-gradient-28" x1="201.17" y1="420.42" x2="195.19" y2="426.4" xlink:href="#linear-gradient-27"></linearGradient><linearGradient id="linear-gradient-29" x1="210.46" y1="358.56" x2="144.79" y2="376.58" xlink:href="#linear-gradient-27"></linearGradient><linearGradient id="linear-gradient-30" x1="208.97" y1="378.63" x2="209.23" y2="423.67" xlink:href="#linear-gradient-27"></linearGradient><linearGradient id="linear-gradient-31" x1="266.39" y1="421.05" x2="263.99" y2="430.99" xlink:href="#linear-gradient-27"></linearGradient><linearGradient id="linear-gradient-32" x1="149.85" y1="310.98" x2="157.65" y2="327.4" xlink:href="#linear-gradient-5"></linearGradient><linearGradient id="linear-gradient-33" x1="145.71" y1="303.49" x2="161.79" y2="273.09" xlink:href="#linear-gradient-12"></linearGradient><linearGradient id="linear-gradient-34" x1="142.3" y1="304.33" x2="165.55" y2="364.43" xlink:href="#linear-gradient-5"></linearGradient><linearGradient id="linear-gradient-35" x1="145.05" y1="285.28" x2="143.04" y2="292.81" xlink:href="#linear-gradient-14"></linearGradient><linearGradient id="linear-gradient-36" x1="160.73" y1="277.93" x2="152.48" y2="282.75" xlink:href="#linear-gradient-15"></linearGradient><linearGradient id="linear-gradient-37" x1="164.17" y1="261.81" x2="145.91" y2="261.05" gradientUnits="userSpaceOnUse"><stop offset="0" stop-color="#8a4791"></stop><stop offset="1" stop-color="#562e65"></stop></linearGradient><linearGradient id="linear-gradient-38" x1="174.8" y1="308.77" x2="189.21" y2="339.98" xlink:href="#linear-gradient-5"></linearGradient><linearGradient id="linear-gradient-39" x1="149.2" y1="409.56" x2="175.98" y2="345.31" xlink:href="#linear-gradient-13"></linearGradient><linearGradient id="linear-gradient-40" x1="151.76" y1="435.58" x2="158.4" y2="400" xlink:href="#linear-gradient-13"></linearGradient></defs><title>iOS application design</title><g class="cls-1"><g id="Layer_1" data-name="Layer 1"><path class="cls-2" d="M450.76,154.22l-41.9-24.35,9.73-46.17h0v0h0v0h0v0h0v0h0v0h0v0h0v0h0v0h0v0h0v0h0v0h0v0h0v0h0v0h0v0h0v0h0v0h0v0h0v0h0v0h0v0h0v0h0v0h0v0h0v0h0v0l0,0h.19a.69.69,0,0,1,.63,0l41.9,24.35C460.37,106.19,454.79,140.6,450.76,154.22Z" transform="translate(-38.05 -5.97)"></path><path class="cls-3" d="M418.59,83.69c17.6,20.17,38.59,32.62,36.54,50.13l-4.36,20.4-41.9-24.35Z" transform="translate(-38.05 -5.97)"></path><polygon class="cls-4" points="412.13 96.73 411.19 143.56 367.24 118.19 367.37 71.76 412.13 96.73"></polygon><polygon class="cls-5" points="411.32 97.13 412.24 96.6 412.11 143.03 411.19 143.56 411.32 97.13"></polygon><polygon class="cls-6" points="367.37 71.76 368.29 71.23 412.24 96.6 411.32 97.13 367.37 71.76"></polygon><path class="cls-5" d="M447.69,139.48v2.93L407,118.92V116l40.68,23.49Zm.09-33.66v2.93L407.1,85.26V82.34l40.67,23.48Zm0,4.81L407.09,87.14v2.93l40.67,23.48v-2.93Zm0,4.81L407.08,92v2.93l40.67,23.48v-2.93Zm0,4.81L407.06,96.76v2.93l40.68,23.49v-2.93Zm0,4.81-40.68-23.49v2.93L447.72,128v-2.93Zm0,4.81L407,106.38v2.93l40.68,23.48v-2.93Zm0,4.81L407,111.19v2.93l40.68,23.48Z" transform="translate(-38.05 -5.97)"></path><path class="cls-7" d="M439.42,120.66l10,35.13h0a4.23,4.23,0,0,0,.62,1.12l-41.9-24.35a1.66,1.66,0,0,1-.62-1.12l-10-35.13h0l-1.87-6.59a1.71,1.71,0,0,1,.36-1.19c1.74,1.59,11,7.27,12.74,8.28,2.87,2.25,3,5,7.31,9.63a7.51,7.51,0,0,0,2.15,1.72Z" transform="translate(-38.05 -5.97)"></path><path class="cls-3" d="M439.94,119.31a1.19,1.19,0,0,1,.21-.15c.33-.19.62-.11.72.22l9.9,34.85L460.49,108a1.65,1.65,0,0,1,.71-1l.2-.09c.4-.11.64.23.52.75l-9.78,46.48a7,7,0,0,1-.59,1.82,2.1,2.1,0,0,1-.79.89.68.68,0,0,1-.78,0,2.09,2.09,0,0,1-.57-1.09l-10-35.13A1.54,1.54,0,0,1,439.94,119.31Z" transform="translate(-38.05 -5.97)"></path><path class="cls-8" d="M419.54,106.82l21.14,12.28c-.55-.27-1.39,1-1.25,1.55l-21.35-12.4a13.09,13.09,0,0,1-1.78-1.15c-3-2.4-4.47-5.68-6.45-8.34a8.49,8.49,0,0,0-1.7-1.72l-.71-.39-11.78-6.93a1.71,1.71,0,0,1,.36-1.18c.22-.24.57-.53.89-.36l11.8,6.95.71.39a8.5,8.5,0,0,1,1.7,1.72c2.1,2.81,3.6,6,7,8.65A11.14,11.14,0,0,0,419.54,106.82Z" transform="translate(-38.05 -5.97)"></path><path class="cls-9" d="M328.36,53.69c-11.21-6.48-21-21.76-21.84-34.15S314,2.38,325.25,8.86s21,21.77,21.84,34.15S339.56,60.17,328.36,53.69Z" transform="translate(-38.05 -5.97)"></path><polygon class="cls-10" points="295.8 16.48 298.77 17.96 285.57 38.05 273.93 20.78 277.76 22.28 283.91 28.12 295.8 16.48"></polygon><path class="cls-11" d="M394.12,417.59l-128.4-73.33c-4.77-2.18-11.77-4.23-16.44-1.38l-12,7.29c-2.41,1.47-10.32,6.33-5,9.21,15.57,8.46,115,66.58,130.84,75.18,3,1.63,7.36,2.21,12,1.83A30,30,0,0,0,388,432.52l4.78-2.95c3.38-2.08,5.25-4.36,5.43-6.54S397,418.92,394.12,417.59Z" transform="translate(-38.05 -5.97)"></path><path class="cls-12" d="M390.54,409.64c0,6.24-2.24,10.64-5.8,12.71l-5.65,3.4c-19.37-8.27-12.18-106.44-13.36-134.35l5.95-146.47c-5-8.74-24.24-16.37-19.75-34.21L295.14,84.14c-2.52-1.71-68.78-40.09-56.88-47.28,2-1.2,4-2.41,5.92-3.56,4.39-2.6,10-1,14.1,1.38h0l113,64.8c11.09,6.39,19.79,21.85,19.75,34.21Z" transform="translate(-38.05 -5.97)"></path><path class="cls-10" d="M232.48,49.55c0-6.12,2.14-10.47,5.57-12.58,3.62-2.23,8.69-2,14.31,1.25l113,64.8c10.93,6.31,19.79,21.65,19.75,34.21l-.47,276c0,12.57-8.95,17.64-19.88,11.33l-113-64.8C240.82,353.4,232,338.07,232,325.51Z" transform="translate(-38.05 -5.97)"></path><path class="cls-13" d="M232.48,49.55c0-6.12,2.14-10.47,5.57-12.58,3.62-2.23,8.69-2,14.31,1.25l113,64.8c10.93,6.31,19.79,21.65,19.75,34.21l-.47,276c0,12.57-8.95,17.64-19.88,11.33l-113-64.8C240.82,353.4,232,338.07,232,325.51Z" transform="translate(-38.05 -5.97)"></path><path class="cls-14" d="M369.32,126c3,1.71,5.37.34,5.38-3.07a11.78,11.78,0,0,0-5.34-9.26c-3-1.71-5.37-.34-5.38,3.07A11.78,11.78,0,0,0,369.32,126Z" transform="translate(-38.05 -5.97)"></path><path class="cls-14" d="M283.54,70.74c0-.93.66-1.29,1.47-.81,11.74,6.63,31,17.46,42.72,24.1a3.28,3.28,0,0,1,1.46,2.55v1.83c0,.93-.66,1.29-1.47.81-11.74-6.63-31-17.46-42.72-24.1a3.27,3.27,0,0,1-1.46-2.55Z" transform="translate(-38.05 -5.97)"></path><path class="cls-15" d="M282.71,183.88c0-2.52,1.79-3.51,4-2.21l49.65,28.05a8.93,8.93,0,0,1,4,6.93v5c0,2.52-1.8,3.51-4,2.21l-49.65-28.05a8.92,8.92,0,0,1-4-6.93Z" transform="translate(-38.05 -5.97)"></path><path class="cls-16" d="M256.79,192c0-2.22,1.58-3.09,3.51-1.94,28.15,15.9,74.28,41.87,102.43,57.78a7.86,7.86,0,0,1,3.49,6.11v4.4c0,2.22-1.58,3.09-3.52,1.94-28.15-15.91-74.28-41.87-102.43-57.78a7.85,7.85,0,0,1-3.49-6.11Z" transform="translate(-38.05 -5.97)"></path><path class="cls-17" d="M262.28,235.16c0-3.27,2.33-4.6,5.18-2.95,30.19,17.32,60.33,35.25,90.53,52.57a11.35,11.35,0,0,1,5.14,8.91l.15,119.53c0,3.27-2.33,4.59-5.18,2.95-30.2-17.32-60.33-35.25-90.53-52.57a11.34,11.34,0,0,1-5.14-8.91Z" transform="translate(-38.05 -5.97)"></path><path class="cls-18" d="M260,233.09l3.46-1.73a3.57,3.57,0,0,1,3.28.44c28.54,16.37,57,33.31,85.55,49.68a10.72,10.72,0,0,1,4.86,8.42l.14,113a3.72,3.72,0,0,1-1,2.84,30.64,30.64,0,0,1-4.07,2.12c-28.54-16.37-56.81-35.49-85.35-51.85a10.71,10.71,0,0,1-4.86-8.42Z" transform="translate(-38.05 -5.97)"></path><path class="cls-19" d="M258.46,236.28c0-3.09,2.2-4.34,4.89-2.79,28.54,16.37,57,33.31,85.55,49.68a10.72,10.72,0,0,1,4.86,8.42l.14,113c0,3.09-2.2,4.34-4.89,2.79C320.48,391,292,374,263.46,357.66a10.71,10.71,0,0,1-4.86-8.42Z" transform="translate(-38.05 -5.97)"></path><path class="cls-10" d="M294.3,284.32a2.19,2.19,0,0,1,.87-2,2.16,2.16,0,0,1,2.23.2l3.83,2.19a19.87,19.87,0,0,0,5.65,5.17,7.4,7.4,0,0,0,5.43,1.18l2.71,1.55a6.79,6.79,0,0,1,3.08,5.33l0,11.56q-11.9-6.92-23.79-13.88l0-11.35Zm12.41,3.34c4,2.32,7,.61,6.72-3.83s-3.82-9.92-7.83-12.25-7-.61-6.72,3.83S302.7,285.33,306.72,287.66Z" transform="translate(-38.05 -5.97)"></path><path class="cls-10" d="M263.39,289.49c0-1.28.91-1.8,2-1.16l81.5,46.76a4.45,4.45,0,0,1,2,3.49l.06,12.68c0,1.28-.91,1.8-2,1.16l-81.5-46.76a4.44,4.44,0,0,1-2-3.49Z" transform="translate(-38.05 -5.97)"></path><path class="cls-20" d="M277.36,345.83c0-1.28.91-1.8,2-1.16l44.07,25.25a4.44,4.44,0,0,1,2,3.49l.06,12.68c0,1.28-.91,1.8-2,1.16L279.43,362a4.44,4.44,0,0,1-2-3.49Z" transform="translate(-38.05 -5.97)"></path><path class="cls-10" d="M263.39,312.64c0-1.28.91-1.8,2-1.16l81.5,46.76a4.44,4.44,0,0,1,2,3.49L349,374.4c0,1.28-.91,1.8-2,1.16l-81.5-46.76a4.44,4.44,0,0,1-2-3.49Z" transform="translate(-38.05 -5.97)"></path><path class="cls-21" d="M339.55,345.88a12.72,12.72,0,0,1-5.76-9c-.23-3.26,2-4.53,4.94-2.82a12.73,12.73,0,0,1,5.76,9C344.71,346.33,342.5,347.59,339.55,345.88Z" transform="translate(-38.05 -5.97)"></path><polygon class="cls-10" points="302.95 331.68 303.73 332.07 300.25 337.37 297.18 332.81 298.19 333.21 299.82 334.75 302.95 331.68"></polygon><path class="cls-22" d="M339.55,367.82a12.72,12.72,0,0,1-5.76-9c-.23-3.26,2-4.53,4.94-2.82a12.73,12.73,0,0,1,5.76,9C344.71,368.27,342.5,369.53,339.55,367.82Z" transform="translate(-38.05 -5.97)"></path><polygon class="cls-10" points="302.95 353.61 303.73 354 300.25 359.3 297.18 354.74 298.19 355.14 299.82 356.68 302.95 353.61"></polygon><path class="cls-23" d="M270.33,296.84a.59.59,0,0,1,1.17-.08l.2,2.84,1.67-1a.58.58,0,0,1,.58,1l-1.6.92,2.4,1.39a.58.58,0,0,1-.59,1l-1.23-.71,1.29,2.05a.58.58,0,0,1-1,.62l-1.3-2.08.1,1.45a.58.58,0,1,1-1.17.08l-.2-2.84-1.44.83a.58.58,0,1,1-.58-1l1.38-.79-2.4-1.38a.58.58,0,1,1,.59-1l1.23.71-1.29-2.05a.58.58,0,1,1,1-.62l1.3,2.08Z" transform="translate(-38.05 -5.97)"></path><path class="cls-23" d="M282.62,303.87a.58.58,0,0,1,1.17-.08l.2,2.84,1.67-1a.58.58,0,0,1,.58,1l-1.6.92L287,309a.58.58,0,1,1-.59,1l-1.23-.71,1.29,2.05a.58.58,0,0,1-1,.62l-1.3-2.08.1,1.45a.59.59,0,1,1-1.17.08l-.2-2.84-1.44.83a.58.58,0,0,1-.58-1l1.38-.79-2.4-1.39a.58.58,0,1,1,.59-1l1.23.71-1.29-2.05a.58.58,0,0,1,1-.62l1.3,2.08Z" transform="translate(-38.05 -5.97)"></path><path class="cls-23" d="M294.64,310.7a.59.59,0,1,1,1.17-.08l.2,2.84,1.67-1a.58.58,0,1,1,.58,1l-1.6.92,2.4,1.39a.58.58,0,1,1-.59,1l-1.23-.71,1.29,2.05a.58.58,0,0,1-1,.62l-1.3-2.08.1,1.45a.59.59,0,0,1-1.17.08l-.2-2.84-1.44.83a.58.58,0,1,1-.58-1l1.38-.79-2.4-1.38a.58.58,0,0,1,.59-1l1.23.71-1.29-2.05a.58.58,0,1,1,1-.62l1.3,2.08Z" transform="translate(-38.05 -5.97)"></path><path class="cls-23" d="M306.65,317.54a.58.58,0,0,1,1.17-.08l.2,2.84,1.67-1a.58.58,0,0,1,.58,1l-1.6.92,2.4,1.38a.58.58,0,1,1-.59,1l-1.23-.71,1.29,2.05a.58.58,0,0,1-1,.62l-1.3-2.08.1,1.45a.59.59,0,0,1-1.17.08l-.2-2.84-1.44.83a.58.58,0,1,1-.58-1l1.38-.79-2.4-1.39a.58.58,0,1,1,.59-1l1.23.71-1.29-2.05a.58.58,0,1,1,1-.62l1.3,2.08Z" transform="translate(-38.05 -5.97)"></path><path class="cls-23" d="M270.33,319.77a.59.59,0,0,1,1.17-.08l.2,2.84,1.67-1a.58.58,0,0,1,.58,1l-1.6.92,2.4,1.38a.58.58,0,0,1-.59,1l-1.23-.71,1.29,2.05a.58.58,0,1,1-1,.62l-1.3-2.08.1,1.45a.58.58,0,1,1-1.17.08l-.2-2.84-1.44.83a.58.58,0,1,1-.58-1l1.38-.79-2.4-1.39a.58.58,0,1,1,.59-1l1.23.71-1.29-2.05a.58.58,0,0,1,1-.62l1.3,2.08Z" transform="translate(-38.05 -5.97)"></path><path class="cls-23" d="M282.62,326.8a.58.58,0,1,1,1.17-.08l.2,2.84,1.67-1a.58.58,0,0,1,.58,1l-1.6.92,2.4,1.39a.58.58,0,1,1-.59,1l-1.23-.71,1.29,2.05a.58.58,0,0,1-1,.62l-1.3-2.08.1,1.45a.59.59,0,0,1-1.17.08l-.2-2.84-1.44.83a.58.58,0,1,1-.58-1l1.38-.79-2.4-1.38a.58.58,0,0,1,.59-1l1.23.71-1.29-2.05a.58.58,0,0,1,1-.62l1.3,2.08Z" transform="translate(-38.05 -5.97)"></path><path class="cls-23" d="M294.64,333.63a.59.59,0,1,1,1.17-.08l.2,2.84,1.67-1a.58.58,0,1,1,.58,1l-1.6.92,2.4,1.38a.58.58,0,0,1-.59,1l-1.23-.71,1.29,2.05a.58.58,0,1,1-1,.62l-1.3-2.08.1,1.45a.59.59,0,0,1-1.17.08l-.2-2.84-1.44.83a.58.58,0,1,1-.58-1l1.38-.79-2.4-1.39a.58.58,0,0,1,.59-1l1.23.71-1.29-2.05a.58.58,0,0,1,1-.62l1.3,2.08Z" transform="translate(-38.05 -5.97)"></path><path class="cls-23" d="M306.65,340.46a.58.58,0,0,1,1.17-.08l.2,2.84,1.67-1a.58.58,0,0,1,.58,1l-1.6.92,2.4,1.39a.58.58,0,1,1-.59,1l-1.23-.71,1.29,2.05a.58.58,0,0,1-1,.62l-1.3-2.08.1,1.45a.59.59,0,1,1-1.17.08l-.2-2.84-1.44.83a.58.58,0,0,1-.58-1l1.38-.79-2.4-1.39a.58.58,0,0,1,.59-1l1.23.71-1.29-2.05a.58.58,0,1,1,1-.62l1.3,2.08Z" transform="translate(-38.05 -5.97)"></path><path class="cls-15" d="M286.58,151.73a7.8,7.8,0,0,1,.61-3.14,5.27,5.27,0,0,1,2-2.4,5.2,5.2,0,0,1,3.23-.73,7.77,7.77,0,0,1,3.18,1.07l7.72,4.42.26.34a41.72,41.72,0,0,0,5,5.48,30.47,30.47,0,0,0,5.29,3.93,17.53,17.53,0,0,0,5,2,8.43,8.43,0,0,0,3.91,0l.82-.22c1.1.63,5.49,3,5.94,3.41a15.14,15.14,0,0,1,7,12.05l0,15.47c.11,4.14,0,6.33-2.08,7.23-1.74.76-3.87-.28-7.75-2.56-4.32-2.54-9.39-5.52-16.51-9.68-6.26-3.66-11.89-6.94-16.53-9.62l-.75-.43h0c-5.92-3.4-6.29-3.61-6.28-11.35l0-15.34Zm4.41-1.46a3.65,3.65,0,0,0-.26,1.46l0,15.34c0,5.32.23,5.47,4.19,7.74h0l.76.44c6.41,3.7,11.81,6.83,16.57,9.62,3.9,2.28,9.83,5.77,16.51,9.7,2.66,1.57,4,2.34,4,2.33.29-.13-.35-1-.41-3.32l0-15.56a11,11,0,0,0-4.88-8.45L322.92,167a13,13,0,0,1-5-.17,21.68,21.68,0,0,1-6.18-2.5,34.65,34.65,0,0,1-6-4.47,45.59,45.59,0,0,1-5.21-5.68l-7-4a3.65,3.65,0,0,0-1.46-.52,1.14,1.14,0,0,0-.69.11,1.18,1.18,0,0,0-.42.54Zm22.88,8.48c3.38,2.42,5.9,2.74,8.07,2.25a8.27,8.27,0,0,0,3.8-1.18,8,8,0,0,0,2.74-2.86,13.13,13.13,0,0,0,1.42-7.52,31.72,31.72,0,0,0-5.18-14.28,33.69,33.69,0,0,0-10.92-10.93,14.43,14.43,0,0,0-8.07-2.25,8.27,8.27,0,0,0-3.8,1.18A8,8,0,0,0,299.2,126a13.12,13.12,0,0,0-1.42,7.52A31.72,31.72,0,0,0,303,147.82a33.68,33.68,0,0,0,10.92,10.93Zm-7.42-13.16a29.46,29.46,0,0,0,9.5,9.57,10.42,10.42,0,0,0,5.71,1.7,4.14,4.14,0,0,0,1.9-.58,3.9,3.9,0,0,0,1.33-1.4,9.12,9.12,0,0,0,.87-5.16,27.51,27.51,0,0,0-4.53-12.33,29.46,29.46,0,0,0-9.5-9.57,10.42,10.42,0,0,0-5.72-1.7,4.13,4.13,0,0,0-1.9.58,3.89,3.89,0,0,0-1.33,1.4,9.12,9.12,0,0,0-.87,5.16A27.52,27.52,0,0,0,306.45,145.59Z" transform="translate(-38.05 -5.97)"></path><path class="cls-24" d="M348,143l5.19-3L391,243.62l-.19,44.17-6,2.26q-15.74-9.18-31.49-18.24a11.37,11.37,0,0,1-5.16-8.93Z" transform="translate(-38.05 -5.97)"></path><path class="cls-4" d="M348.68,140.58l2.38-1.26a3.78,3.78,0,0,1,3,.54c28.43,16.31,56.8,33.18,85.23,49.49a10.68,10.68,0,0,1,4.84,8.39l.14,112.54a3.55,3.55,0,0,1-1.2,3c-.89.66-2.74,2.1-4.2,1.25-28.43-16.31-56.27-34.63-84.7-50.94a10.67,10.67,0,0,1-4.84-8.39Z" transform="translate(-38.05 -5.97)"></path><path class="cls-10" d="M347.23,143.71c0-3.08,2.19-4.33,4.87-2.78,28.43,16.3,56.8,33.18,85.23,49.49a10.68,10.68,0,0,1,4.84,8.39l.14,112.54c0,3.08-2.19,4.32-4.87,2.78-28.43-16.31-56.8-33.19-85.23-49.49a10.67,10.67,0,0,1-4.84-8.39Z" transform="translate(-38.05 -5.97)"></path><path class="cls-25" d="M347.23,143.71c0-3.08,2.19-4.33,4.87-2.78,28.43,16.3,56.8,33.18,85.23,49.49a10.68,10.68,0,0,1,4.84,8.39l.1,88.43-94.94-54.45Z" transform="translate(-38.05 -5.97)"></path><path class="cls-26" d="M354.28,244.67c0-1.33.95-1.85,2.1-1.16l26.18,14.79a4.71,4.71,0,0,1,2.09,3.66v2.63c0,1.33-.95,1.85-2.11,1.16L356.37,251a4.7,4.7,0,0,1-2.09-3.66Z" transform="translate(-38.05 -5.97)"></path><path class="cls-26" d="M354.28,256.21c0-1.17.83-1.63,1.85-1,14.84,8.39,39.17,22.08,54,30.47a4.15,4.15,0,0,1,1.84,3.22v2.32c0,1.17-.83,1.63-1.85,1-14.84-8.39-39.17-22.08-54-30.47a4.14,4.14,0,0,1-1.84-3.22Z" transform="translate(-38.05 -5.97)"></path><path class="cls-27" d="M428.72,195.22c3.79,1,7.17,5.48,7.56,10s-2.36,7.38-6.14,6.38-7.17-5.48-7.56-10S424.94,194.22,428.72,195.22Z" transform="translate(-38.05 -5.97)"></path><path class="cls-10" d="M429.07,199.26a6,6,0,0,1,3.83,5.07c.2,2.29-1.2,3.74-3.11,3.23A6,6,0,0,1,426,202.5C425.76,200.2,427.15,198.76,429.07,199.26Z" transform="translate(-38.05 -5.97)"></path><path class="cls-10" d="M357.24,217.72c-1.55-4.76-5.47-14.3-5.9-19.28s2.64-8.27,6.88-7.15,8,6.14,8.47,11.21c.47,5.42-6,11-9.45,15.22Zm.92-22.94c-2.55-.68-4.41,1.25-4.14,4.3s2.55,6.07,5.1,6.75,4.41-1.25,4.14-4.3S360.71,195.46,358.16,194.78Z" transform="translate(-38.05 -5.97)"></path><path class="cls-10" d="M356.47,223.44a.8.8,0,0,0,1.29.93c.62-.86,1.25-1.71,1.89-2.55a.8.8,0,0,0-1.27-1q-1,1.28-1.91,2.58Zm71.71-14.83a.8.8,0,0,0-1.58-.19,25.67,25.67,0,0,1-.54,3.06.8.8,0,0,0,1.55.37,28,28,0,0,0,.57-3.23Zm-2.11,7.91a.8.8,0,0,0-1.46-.64,20.72,20.72,0,0,1-1.42,2.73.8.8,0,0,0,1.35.85,22.65,22.65,0,0,0,1.53-2.93Zm-4.69,6.8a.8.8,0,0,0-1.07-1.19,11.82,11.82,0,0,1-2.43,1.73.8.8,0,0,0,.74,1.41,13.41,13.41,0,0,0,2.76-2Zm-7.74,3.21a.8.8,0,0,0,0-1.6,9.57,9.57,0,0,1-2.9-.45.8.8,0,0,0-.49,1.52,11.24,11.24,0,0,0,3.38.53Zm-7.84-2.84a.8.8,0,0,0,.94-1.29,21.35,21.35,0,0,1-2.34-2,.8.8,0,0,0-1.12,1.14,23.52,23.52,0,0,0,2.52,2.14Zm-5.76-5.82a.8.8,0,0,0,1.27-1c-.64-.83-1.23-1.68-1.81-2.56a.8.8,0,0,0-1.34.87c.59.9,1.22,1.79,1.88,2.65Zm-4.36-6.78a.8.8,0,0,0,1.37-.82,22.32,22.32,0,0,0-1.85-2.73.8.8,0,0,0-1.25,1c.59.88,1.17,1.61,1.73,2.56Zm-5-5.74a.8.8,0,0,0,.92-1.3,13.31,13.31,0,0,0-3-1.61.8.8,0,0,0-.55,1.5,11.47,11.47,0,0,1,2.61,1.42Zm-7-2.09a.8.8,0,0,0-.08-1.59,15.33,15.33,0,0,0-3.32.56.8.8,0,0,0,.44,1.53,13.7,13.7,0,0,1,3-.5Zm-7.2,2.29a.8.8,0,0,0-.77-1.4,31,31,0,0,0-2.78,1.74.8.8,0,0,0,.92,1.31,27.56,27.56,0,0,1,2.63-1.65Zm-6.32,4.56a.8.8,0,0,0-1.06-1.2c-.82.72-1.58,1.46-2.37,2.21a.8.8,0,0,0,1.13,1.13c.74-.74,1.52-1.46,2.3-2.15Zm-5.56,5.58a.8.8,0,0,0-1.2-1.06c-.71.8-1.41,1.62-2.1,2.44a.8.8,0,0,0,1.23,1C363.28,217.28,364,216.48,364.67,215.69Z" transform="translate(-38.05 -5.97)"></path><path class="cls-27" d="M355.88,220.41a5.74,5.74,0,0,1,3.7,4.89c.19,2.21-1.15,3.61-3,3.12a5.74,5.74,0,0,1-3.7-4.89C352.69,221.32,354,219.92,355.88,220.41Z" transform="translate(-38.05 -5.97)"></path><path class="cls-10" d="M356.05,222.39a2.91,2.91,0,0,1,1.87,2.48c.1,1.12-.58,1.83-1.52,1.58a2.91,2.91,0,0,1-1.87-2.48C354.43,222.85,355.11,222.14,356.05,222.39Z" transform="translate(-38.05 -5.97)"></path><path class="cls-28" d="M240.66,50.69q12.77,7.44,25.55,14.79a10.39,10.39,0,0,1,4.71,8.16l.14,109.45c0,3-2.13,4.21-4.74,2.7l-34-19.72L232.26,139Z" transform="translate(-38.05 -5.97)"></path><path class="cls-4" d="M179.17,17.83l2.17-1.15a3.45,3.45,0,0,1,2.77.49c26,14.89,51.87,30.3,77.83,45.19A9.75,9.75,0,0,1,266.36,70l.13,102.76a3.24,3.24,0,0,1-1.1,2.71c-.82.6-2.5,1.91-3.84,1.14-26-14.89-51.39-31.63-77.34-46.51a9.75,9.75,0,0,1-4.42-7.66Z" transform="translate(-38.05 -5.97)"></path><path class="cls-10" d="M177.85,20.69c0-2.81,2-4,4.45-2.54,26,14.89,51.87,30.3,77.83,45.19A9.75,9.75,0,0,1,264.55,71l.13,102.76c0,2.81-2,3.95-4.45,2.53-26-14.89-51.87-30.3-77.83-45.19a9.75,9.75,0,0,1-4.42-7.66Z" transform="translate(-38.05 -5.97)"></path><path class="cls-29" d="M177.85,20.69c0-2.81,2-4,4.45-2.54,26,14.89,51.87,30.3,77.83,45.19A9.75,9.75,0,0,1,264.55,71l.09,80.75L177.95,102Z" transform="translate(-38.05 -5.97)"></path><path class="cls-30" d="M184.29,112.88c0-1.21.86-1.69,1.92-1.06l23.91,13.51a4.3,4.3,0,0,1,1.91,3.34v2.4c0,1.21-.87,1.69-1.92,1.06L186.2,118.63a4.3,4.3,0,0,1-1.91-3.34Z" transform="translate(-38.05 -5.97)"></path><path class="cls-30" d="M184.29,123.42c0-1.07.76-1.49,1.69-.94,13.56,7.66,35.77,20.16,49.33,27.82a3.79,3.79,0,0,1,1.68,2.94v2.12c0,1.07-.76,1.49-1.69.94-13.56-7.66-35.77-20.16-49.33-27.82a3.78,3.78,0,0,1-1.68-2.94Z" transform="translate(-38.05 -5.97)"></path><path class="cls-31" d="M245.89,86.83l-.09,51.07,14.33,8.35.09-51.07-14.33-8.35Zm-43-40.62-.14,68.35L217,122.91l.14-68.35-14.33-8.35Zm21.47,24.23-.11,56.66,14.33,8.35.11-56.66-14.33-8.35ZM181.31,51,181.21,102l14.33,8.35.09-51.07Z" transform="translate(-38.05 -5.97)"></path><path class="cls-32" d="M181.14,71a.83.83,0,0,1,.07-1.31,1.22,1.22,0,0,1,1.53.06l13.58,12.72,6.58,2.8L217,82.37,225.56,73a1.22,1.22,0,0,1,1.53-.16,1,1,0,0,1,.24.22l20.12,21.6,12.27,3a1,1,0,0,1,1.12.89,1,1,0,0,1-1,1l-12.79-3a1.17,1.17,0,0,1-.93-.36L226.42,75.07l-7.93,8.69h0a1.11,1.11,0,0,1-.6.33l-14.86,3a1.24,1.24,0,0,1-.73-.07l-7-3a1.09,1.09,0,0,1-.39-.23Z" transform="translate(-38.05 -5.97)"></path><path class="cls-10" d="M181.14,71.24a1.09,1.09,0,0,1,1.61-1.46L196.32,84.7,202.9,88,217,84.62l8.56-11a1.09,1.09,0,0,1,1.76.06L246.4,98.29l13.47-.5a1.08,1.08,0,0,1,.08,2.17l-14,.52a1.08,1.08,0,0,1-.93-.42L226.42,76l-7.93,10.2h0a1.08,1.08,0,0,1-.6.39L203,90.19a1.07,1.07,0,0,1-.73-.09l-7-3.52a1.08,1.08,0,0,1-.39-.27Z" transform="translate(-38.05 -5.97)"></path><path class="cls-11" d="M43.29,351.42l55.5-31.61c6.05-2.76,14.71-5,20.87-1.76,5.62,2.92,14.87,8.91,19,11.24,3.11,1.77,13.89,8.23,7.18,11.89C126,351.92,106.48,364,86.41,374.93c-3.8,2.06-9.35,2.81-15.18,2.33a40.18,40.18,0,0,1-16.44-4.9L45,366.63c-4.35-2.53-6.66-5.53-6.89-8.3S39.58,353.11,43.29,351.42Z" transform="translate(-38.05 -5.97)"></path><path class="cls-33" d="M117.08,202.9c.26,2.42-.11,6.13.07,15.24.13,6.45-.73,17.7-1.41,27.37-.28,4-.84,7.54-1.19,10.65-.26,2.26-1.25,4.49-1.57,6.69-2.45,16.55-5.6,31.6-7.48,51.61-.43,4.6-.92,7-.11,11.54.16.89.6,1.78.71,2.68.57,4.41,1,8.81,2.72,12.47.25.53.64,1.94,1,2.52,0,0-4,1.38-4.44,1.44s-6.85-1.7-6.85-1.7-2.37-10.64-2.34-11.25c.41-7-4.43-5.69-.13-11,.4-.66.3-.72.29-1.5-.05-6.9-1.23-16.9-2.11-25.85-2.51-25.58,1.76-23.74,2.71-36-1.76-14.71-5.32-35.6-4.95-53.7Z" transform="translate(-38.05 -5.97)"></path><path class="cls-34" d="M108,339.2c.69,1.26,1.42,3.06,2.05,4.42a27.67,27.67,0,0,1,1.61,4.28,2,2,0,0,1-.15,1.72c-1.54,2.07-9.25-1.7-11.84-4-1.67-1.47-1.7-3.22-2.09-5.35-.59-3.2-.69-3.56-1.46-6.84l-.87,8.92-.74.44a99.32,99.32,0,0,0-1.1-11.54c-.22-1.24-.61-2.65-.66-3.33a7.07,7.07,0,0,1,3.52-7.16c-.68,2.46,1.11,6.45,1.92,11.48.85,5.26,3.76,11,6.05,11.5,1,.2,3.1-1,4.26-1.66C108.94,341.85,108.44,340.35,108,339.2Z" transform="translate(-38.05 -5.97)"></path><path class="cls-35" d="M85.86,195.19C83.25,203.69,78,211.47,77,218.14s-.47,13.07.83,23.1c.88,6.82,4.35,22.2,3.61,28-1.08,8.55-4.19,13.61-5.22,23.62-.83,8.06.5,19.76.9,30.91.15,4.24-.21,4.3-1.22,8.15a29.43,29.43,0,0,0-.72,4A59.32,59.32,0,0,0,74.9,348c.13,1.7.77,2.52.93,4.85l9.49,3c-.22-2-.5-5.1-.63-8.5-.11-3-.08-6.33-.08-9.34,0-4.32-.41-7,.35-11.13,2.55-13.6,6.51-25.56,9.18-36.74,1.4-5.84,1.81-11,3.86-19.39a57.18,57.18,0,0,0,1.74-10.31c.54-9.29,2.32-20.45,2.38-30,7.68-11.13,12.67-16.6,14.75-22.4a25.85,25.85,0,0,0-.92-8.32Z" transform="translate(-38.05 -5.97)"></path><path class="cls-34" d="M76.8,328.68c-.82,1.88-1.6,2.84-2,5.5s.26,7-.28,10.28l-.85,5.22c-.49,3,0,5.26,3.15,8.24,2.85,2.7,5.79,4,7.56,3.44,1.31-.44,2.57-2.47,1.43-8.42-.95-5-.9-9.64-1.15-14.92a52.5,52.5,0,0,0,.11,12c.16,1.43.25,3.74-1.43,3.76-6.93.09-7-1.79-7.33-4C75.22,344,75.42,333.85,76.8,328.68Z" transform="translate(-38.05 -5.97)"></path><path class="cls-36" d="M85.86,195.19C83.25,203.69,78,211.47,77,218.14c-1.54,10,.23,18,2.94,39.75a23.93,23.93,0,0,1-.58,8c-1.62,7.59,5.85,9.71,14.71,6.91,10.83-3.43,20.81-11.52,21.45-15.25,1.21-10.64,4.23-30.87,4-40s-2.24-12.24-2.5-14.66l-.09-2.35C116.69,198.67,89.71,195.78,85.86,195.19Z" transform="translate(-38.05 -5.97)"></path><path class="cls-37" d="M66.66,150.63c19.86,10.68,28.18-9.74,30.23-25.15.88-6.63.65-13-2.21-16.94-3-4.17-8.06-5.85-13-5.66-10.73.42-16.49,10.61-13.9,21.26C70.3,134.53,75.28,145.81,66.66,150.63Z" transform="translate(-38.05 -5.97)"></path><path class="cls-38" d="M92.91,109c-5.42-2.79-13.2,3.48-10.66,12C83.09,116.5,85.72,111.52,92.91,109Z" transform="translate(-38.05 -5.97)"></path><path class="cls-39" d="M92.27,108.26c19.05-6.31,32.66,23.12,10.86,32.25C82.26,149.25,71.11,115.27,92.27,108.26Z" transform="translate(-38.05 -5.97)"></path><path class="cls-40" d="M166.94,161.1c1.13,1.64-1,2.77-2,2.83-1.53.2-3.7-.58-4.24.44s-7.75-1.22-7.68-1.29a13,13,0,0,1,6.1-2.59C163.74,160.79,162.41,161.82,166.94,161.1Z" transform="translate(-38.05 -5.97)"></path><path class="cls-41" d="M154.08,169.74c-6.56,1.85-15.52,8.26-21.75,9.67-2,.44-5,1.31-6.6-.37-8-8.67,3.13-5.82,4.07-9.09,5.71-4.25,14.64-2.24,22-6.18a13.8,13.8,0,0,1,1.43-.84c2.87-1.43,4.47-1.31,9.45,1.19a5.8,5.8,0,0,0,3.46.6l5-.64c1.54-.06,2.51.31,2.75.81s-.28,3.72-1.18,5h0c-.19.58-1.33,1-3.11,1.05l-7.32,2.24-.34-.19C157.53,170.48,155.67,169.66,154.08,169.74Z" transform="translate(-38.05 -5.97)"></path><path class="cls-42" d="M122.92,179.8c-5.91-5.51-14.3-13.53-17.3-19.86-1.95-4.12-2.31-15.67,4-17.13,2.1-1.33,5.3,7.28,7.46,10.75a152.39,152.39,0,0,0,11.35,15.82c4.86-3.15,11.56-3.46,17.87-5a6.23,6.23,0,0,1,2.9-.08,9.8,9.8,0,0,0,2.19-.77c.72.19,3.08,4.29,2.68,6.7-.5.14-1.61.48-2.14.67-.75.26-1.17,1-1.9,1.38-2.51,1.35-13.79,7-19.4,8.23-2.14.48-5.58,1.6-7.26-.22Z" transform="translate(-38.05 -5.97)"></path><path class="cls-43" d="M122.92,179.8c-2-1.83-4.19-3.93-6.4-6.15,4.65-4.07,4.23-11.3,1.21-15.7a40.33,40.33,0,0,1-4.12-7.27,32.92,32.92,0,0,0-.92-4.16,6,6,0,0,0-.69-1.62c1,1.22,1.53,3.59,3.11,6.93,2.7,5.7,6.79,9,7.12,15.73.24,5,2.5,10.79,6.19,13.43-1.86.38-3.91.55-5.09-.73Z" transform="translate(-38.05 -5.97)"></path><path class="cls-44" d="M81.93,186.42c3.64,8.43-2.55,13.09-.32,18.89l-.69,3.93c6.65,4.77,30.41,5.13,36.37-4.33l.12-4.72c1-2.26.35-8,.05-9.47-1-4.79-.51-7.33-1-12.87-.13-1.4-.39-2.28-.52-3.7,5.29-4,5-11.61,1.82-16.19a40.25,40.25,0,0,1-4.12-7.27,32.93,32.93,0,0,0-.92-4.16,6.9,6.9,0,0,0-1.11-2.27c-1.51-2.16-4-2.41-8.94-1.27-9.89,2.27-20.07,7.4-24.61,12.24-3.3,3.52-3.17,7.43-1.28,15.87A90.48,90.48,0,0,0,81.93,186.42Z" transform="translate(-38.05 -5.97)"></path><path class="cls-43" d="M81.86,186.37c3.64,8.43-2.4,13.24-.17,19L81,209.29c6.65,5.17,30.41,4.93,36.37-4.53l-.13-4.12c0-.16-11.67,10.35-25,4.5-2.89-1.27-5.5-7.58-1.76-19.64.36-1.15,4.59-1.23,10.59-5.64-4.43,1.88-12.77,4.45-13.19-6.81-.18-5-.92-8.82-3.5-12.32-1.25-1.7-8.58,7.21-7.46,11.48A107,107,0,0,0,81.86,186.37Z" transform="translate(-38.05 -5.97)"></path><path class="cls-45" d="M108,146.53c.82,2.68,1.27,15.9-.29,21.74-5.3-6-20.8-13.82-18.81-18.05C91.34,145,106.55,141.85,108,146.53Z" transform="translate(-38.05 -5.97)"></path><path class="cls-41" d="M107.2,147.12c.73,2.4,1,14.34-.06,19.51-4.07-4.87-19-12.29-17.2-16.47C92,145.39,105.92,142.94,107.2,147.12Z" transform="translate(-38.05 -5.97)"></path><path class="cls-41" d="M93.55,136a25.94,25.94,0,0,1-1,12.7c3.56,3.3,9.9,1.9,11.37-1.09-.31-1.93-.67-3.71-.88-5.7Z" transform="translate(-38.05 -5.97)"></path><path class="cls-46" d="M93.55,136a24.86,24.86,0,0,1,.32,6.15c1,4.23,9,7.08,9.77,3.72-.22-1.3-.44-2.57-.59-4Z" transform="translate(-38.05 -5.97)"></path><path class="cls-41" d="M108.28,117.54a14.12,14.12,0,0,1,2.31,9.67,4.16,4.16,0,0,0,.33,2.31c1.66,3.75,1.51,4.91.69,7.92s-.75,4.45-1.74,5.45a5.82,5.82,0,0,1-3.85,1.35c-2.66.17-7.23-1.59-9.88-3-2-1.08-1.89-1.81-2.72-3.68-2.78-2.42-1-4.18,0-4.36,2.67-.52,3.1,2.56,4.68,3.24C97.78,131,108.08,121.88,108.28,117.54Z" transform="translate(-38.05 -5.97)"></path><path class="cls-47" d="M109.46,119.7a13.88,13.88,0,0,1,1.13,7.51,4.16,4.16,0,0,0,.33,2.31c1.66,3.75,1.51,4.91.69,7.92-.36,1.31-.55,2.34-.73,3.17a2.49,2.49,0,0,1-3.11.9,4.79,4.79,0,0,1-2.48-4c-.2-1.55-3.38-2.58-4-4.16-.54-1.31.93-2.77,1.82-3.53A22.2,22.2,0,0,0,109.46,119.7Z" transform="translate(-38.05 -5.97)"></path><path class="cls-48" d="M108.28,117.54c-1.49,6.64-10.16,11.66-10.23,18.86C100.41,128.91,108.82,123.79,108.28,117.54Z" transform="translate(-38.05 -5.97)"></path><path class="cls-49" d="M77.58,203.21c1.18.71,3.33,1.41,4.19,1.92.45.27,3.65,2.26,5.45,3.47s2.47,3.16,3.62,5.24a13,13,0,0,1,1.3,3.76c.12.88-2.1,2.56-3,2.35-2.15-.48-4.34-3.11-4.9-3.4-4.81-2.49-7.11-2.74-8.85-4.72-.74-.85-1.2-3.32-2.73-5.55l2.95-2.67Z" transform="translate(-38.05 -5.97)"></path><path class="cls-50" d="M77.58,155.18c-7.79,3.26-14.45,18.5-21.52,27.59a4.32,4.32,0,0,0-.69,4.9,13.57,13.57,0,0,0,1.39,2.5c3.36,4.94,6.11,9.15,13.29,15.26a4.3,4.3,0,0,0,1.85.87c.45.37,1.08,1,1.56,1.44-.6-.77,3-4.62,4.6-4.36-.42-.52-.84-1.07-1.27-1.67a2.39,2.39,0,0,0-.48-1.53c-3-4.34-5.91-10.13-9.62-14.19a91.64,91.64,0,0,0,15.26-14.88C89.23,162.21,83.52,152.7,77.58,155.18Z" transform="translate(-38.05 -5.97)"></path><path class="cls-11" d="M120.32,440.18c22.52-13,58.94-13,81.31,0s22.28,34.11-.24,47.11-58.94,13-81.33,0S97.8,453.18,120.32,440.18Z" transform="translate(-38.05 -5.97)"></path><path class="cls-11" d="M287.37,447.28l-59.22-33.73c-6.46-2.95-15.7-5.3-22.27-1.87-6,3.12-15.87,9.5-20.23,12-3.32,1.89-14.83,8.79-7.66,12.69,21.09,11.47,42,24.37,63.38,36,4.05,2.2,10,3,16.19,2.48a42.87,42.87,0,0,0,17.54-5.22l10.5-6.11c4.65-2.7,7.11-5.9,7.35-8.86S291.33,449.08,287.37,447.28Z" transform="translate(-38.05 -5.97)"></path><path class="cls-51" d="M205.82,458.62l.09,4.44c0,6.71-4.41,13.44-13.28,18.56-14.14,8.16-34.49,9.46-50.44,5.29-10.53-2.75-26.3-10.63-26.3-23.61l-.09-4.44Z" transform="translate(-38.05 -5.97)"></path><path class="cls-52" d="M129.08,440.3c17.63-10.18,46.14-10.18,63.65,0s17.44,26.7-.19,36.88-46.14,10.18-63.67,0S111.45,450.48,129.08,440.3Z" transform="translate(-38.05 -5.97)"></path><path class="cls-51" d="M165.56,349.41v106a2.76,2.76,0,0,1-1.63,2.28,8.74,8.74,0,0,1-6.2.65c-1.29-.34-3.23-1.31-3.23-2.9v-106Z" transform="translate(-38.05 -5.97)"></path><path class="cls-53" d="M218.52,371.24c-5.43,14-8.41,33.65-11.71,49a8,8,0,0,1-3.89,5.36c-3.84,2-8.14,1.56-9.18-1.3.09-14.36-.79-25-.34-32.84.5-8.82,3.82-22.26,7.2-27.4C203.09,352.16,224.31,356.71,218.52,371.24Z" transform="translate(-38.05 -5.97)"></path><path class="cls-54" d="M219.08,369.59c-.18.62-.37,1.17-.55,1.65l-.23.59,0,.13c-.91,2.41-1.75,5-2.54,7.67l0,.13-.19.64-.06.2-.13.46c-3.57,12.67-6.07,27.73-8.65,39.76-1.35-18.06,1.61-36.12,6.42-51.73a59.36,59.36,0,0,0-.3-11.31C217.23,359.16,220.79,363.3,219.08,369.59Z" transform="translate(-38.05 -5.97)"></path><path class="cls-10" d="M211.92,433.63c-2.49,2.44-4,.87-5,5.29-2.71,4.14-5.2,5.41-7.45,4.94-2.86-.59-5.1-1.75-5.51-4.93-.48-5.31-.59-6.31.8-10.22l.38-.26a1.08,1.08,0,0,1,1.14-.34c2.49.59,3.25,2.13,4.16,3,1.94,1.86,3.81.37,4.64-1.78v0l0-.06v0l0-.11v0l0-.14v0l0-.13v0h0v0l0-.07h0v-.07l0-.21,0-.21v0q0-.19,0-.38v0l0-.15v-.29l0-.24v-.65c0-.11,0-.22-.05-.33a5.89,5.89,0,0,1,.12-1.87c0-.21,0-.42,0-.62,2.72-1.52,6.81-5.66,9.72-6.45,2.08-.57,3.25,2.4,3.33,3.78C218.79,424.18,214.6,430.7,211.92,433.63Z" transform="translate(-38.05 -5.97)"></path><path class="cls-55" d="M204.86,422.54c-.12,3,.11,6.32-2.11,8.08-1.94,1.53-5.28,2.12-7.32-.95-.86-1.29-.76-3.52-1.07-6.27C194.35,425.43,205,424.64,204.86,422.54Z" transform="translate(-38.05 -5.97)"></path><path class="cls-56" d="M211.25,432.35c-2.49,2.44-4,.87-5,5.29-2.71,4.14-5.2,5.41-7.45,4.94-2.86-.59-5.1-1.75-5.51-4.93-.48-5.31-.59-6.31.8-10.22l.38-.26a1.08,1.08,0,0,1,1.14-.34c2.49.59,3.26,2.13,4.16,3,1.94,1.86,3.81.37,4.64-1.78v0l0-.06v0l0-.11v0l0-.14v0l0-.13v0h0v-.11h0v-.07l0-.21,0-.21v0q0-.19,0-.38v0l0-.15V426l0-.24v-.65c0-.11,0-.22-.05-.33a5.89,5.89,0,0,1,.12-1.87q0-.31,0-.62c2.72-1.52,6.72-4.5,9.63-5.29a2.75,2.75,0,0,1,3.42,2.63C218.12,422.9,213.93,429.42,211.25,432.35Z" transform="translate(-38.05 -5.97)"></path><path class="cls-10" d="M215.21,417.7c.73.82,2.37.29,3.15,2.11,0-1.2-1.18-2.92-2.47-2.92C215.64,416.89,214.85,417.37,215.21,417.7Z" transform="translate(-38.05 -5.97)"></path><path class="cls-57" d="M207.41,417.42q-.3,1.43-.59,2.82a8,8,0,0,1-3.89,5.36c-3.84,2-8.14,1.56-9.18-1.3,0-1.24-.21-2.46-.21-3.65C195.66,423.28,202.91,424.86,207.41,417.42Z" transform="translate(-38.05 -5.97)"></path><path class="cls-58" d="M165.09,353.28c-12.07-3.36-35.13,9.49-56.92,32.81-19.67,21.06,55.49,43.21,70.42,37.49,14.19-5.44,50.19-23.44,47.16-31C219.83,377.72,186.93,359.37,165.09,353.28Z" transform="translate(-38.05 -5.97)"></path><path class="cls-59" d="M174.8,355.36c-10.75.35-22.83,0-32.43,3.49-9,3.29-7.54,16.23.62,23.67,7.15,6.52,19.25,8.43,37.09,1.11,5.55-2.28,10.85-4.38,19.15-5.33,8-.92,13.19.71,17.58-6.82,3.11-5.34,2.15-11.64-5.23-14C200.77,353.93,185.86,355,174.8,355.36Z" transform="translate(-38.05 -5.97)"></path><path class="cls-55" d="M271.15,419.52a99,99,0,0,0,5.22,8.61c1.74,2.56-1.93,6.75-4.39,8.09s-6.38,1.38-8.08-2.48c-.66-1.5-.89-3.51-1.59-5.4C263.54,430.36,269,424.43,271.15,419.52Z" transform="translate(-38.05 -5.97)"></path><path class="cls-10" d="M267.45,435.92c1.25-.31,8.76,2.39,9.11-7.09,5.39,1.32,14.08-2.91,19-2.85.87,0,2.35-1,2.79-.47,1.4,1.55,3,4,.91,6.28a43.11,43.11,0,0,1-7.33,5.74,71.15,71.15,0,0,1-9.72,5.3c-3.3,1.31-4.81,1.89-5.87,3.17a9.34,9.34,0,0,1-4.52,2.24,8.26,8.26,0,0,1-7.06-2.87c-.57-.73-1.4-4.32-1.49-6.75a35,35,0,0,1,.82-6.38Z" transform="translate(-38.05 -5.97)"></path><path class="cls-56" d="M277.72,427.62c3,.18,10.51-2.11,15.45-2.82,2.12-.31,4-.75,5.39.92s1.16,3.14-.54,5a35.23,35.23,0,0,1-6.58,5.32,71.16,71.16,0,0,1-9.72,5.3c-3.3,1.31-4.81,1.89-5.87,3.17a9.35,9.35,0,0,1-4.52,2.24,8.63,8.63,0,0,1-7.12-3.14c-.57-.73-1.34-4.06-1.43-6.49,0-1.36-.23-3.37-.15-4.57.13-2,1-2.27,1.89-2,1.75.5,2.69,1.91,3.57,3a3.66,3.66,0,0,0,2.57,1.53c2,.16,3.45-1.26,4.19-3.11a13.5,13.5,0,0,0,.44-4q0-.19-.08-.37c-.36-3.27,1.25-3.35,1.17-2.62A2.82,2.82,0,0,0,277.72,427.62Z" transform="translate(-38.05 -5.97)"></path><path class="cls-10" d="M297.11,425.49c.24,1.24,1.91,0,2.46,3.14,1.06-1.49-.64-3.48-1.84-3.83C297.46,424.71,296.86,424.56,297.11,425.49Z" transform="translate(-38.05 -5.97)"></path><path class="cls-60" d="M237.07,368.29c8.63,14.72,24.6,36.71,33.52,49.87,2.27,4.27-1.58,10.87-8.64,11.82-10.11-12.06-21.88-18.88-31.87-33.79-1.89-2.82-5.38-8.75-7.57-13-2.73.33-6.42.9-10.41,1.56-8.25,1.36-15.07,3.28-20.48,5.88-17.39,8.34-29.57,7.13-37.09,1-8.57-7-10.74-19.78-2-23.59,9.38-4.08,20.08-4.94,30.78-5.92,9.78-.89,29.34-2.78,41.29-1.19.93.13,1.82.27,2.66.44,3.19.56,5.35,1.35,7.72,3.83A9.16,9.16,0,0,1,237.07,368.29Z" transform="translate(-38.05 -5.97)"></path><path class="cls-61" d="M269.46,415.57c.51.85,2.38,3.57,2.86,4.39,1.33,3.55-3.44,9.64-10.55,10.19-.54-.72-2.52-2.83-3.07-3.53C265.13,424.81,269.19,421.22,269.46,415.57Z" transform="translate(-38.05 -5.97)"></path><path class="cls-41" d="M163.06,295.82c1.86-3.21,3.75-5.92,5.81-8.81,1.68-2.36,2.26-2.31,4.87-3,2.87-.81,3.49-.61,6.05.16a8.74,8.74,0,0,1,4.66,3.25c1.77,3.19-5.6,3.88-6.23,4.16-1.2,2.32-1.53,4.14-3.67,5.46-3.55,2.17-5,2.25-6.31,4.85Z" transform="translate(-38.05 -5.97)"></path><path class="cls-62" d="M170.93,291.59c2.29-2.67,2.43-3.29,5.41-5.74l.36-.13,2.55.14c1.26,1.32,3.48,2.63,4.93,1.15l.18.27c1.05,1.67,0,3.84-1,4-2.34.36-4.18-.16-5.17.28-1.2,2.33-1.53,4.14-3.67,5.46-3.55,2.17-5,2.25-6.31,4.85L165,298Z" transform="translate(-38.05 -5.97)"></path><path class="cls-63" d="M148.64,327.92c2.31-3.26,14.7-16.33,17.75-21.69a8.71,8.71,0,0,0,.65-3l1.66-2.15c-.31-2.57-3.12-5.54-5.63-5.87l-1.8,1.47a9,9,0,0,0-4.22,1c-8.34,4.88-23.34,18.7-23.27,28.63C133.84,333.14,145.43,330.82,148.64,327.92Z" transform="translate(-38.05 -5.97)"></path><polygon class="cls-64" points="146.45 267.58 124.69 302.25 160.02 310.96 181.78 276.29 146.45 267.58"></polygon><path class="cls-41" d="M167.33,298.08c5,.48,4.17-2.37,5.92-5.66a11,11,0,0,0,2.38-1.89c3.39-.57,3.82-2.13,3.39-3.76-1.14,0-3.4,0-4.38.13-4.67,2-8.14,2.14-10.17,7.29C163.74,296.07,165.86,295.76,167.33,298.08Z" transform="translate(-38.05 -5.97)"></path><path class="cls-10" d="M191.72,313.38a.94.94,0,0,0,1.79.57,39.9,39.9,0,0,0,1.65-10.57c0-2.74-.58-5.08-2.17-6-2.65-1.48-4.37-.37-6.1.74-.31.19-.62.39-.87.54a4.25,4.25,0,0,1-1.8.64,1.48,1.48,0,0,1-1.24-.5,4,4,0,0,1-.8-1.77,11.15,11.15,0,0,1,0-4.41c.15-.73.32-1.45.49-2.17.94-4,1.85-7.76-1.71-9.25a.94.94,0,0,0-.72,1.74c2.08.87,1.36,3.9.6,7.07-.18.75-.36,1.51-.51,2.24a13.11,13.11,0,0,0,0,5.2,5.77,5.77,0,0,0,1.25,2.61,3.28,3.28,0,0,0,2.74,1.11,6,6,0,0,0,2.62-.89c.36-.21.66-.4,1-.59,1.25-.81,2.5-1.62,4.16-.68.88.49,1.2,2.23,1.21,4.34A37.73,37.73,0,0,1,191.72,313.38Z" transform="translate(-38.05 -5.97)"></path><path class="cls-65" d="M135.82,361.87l.69,3c5.7,9.16,27.17,15.24,42.41,2.06a22.66,22.66,0,0,1-.68-3.79,13.55,13.55,0,0,0,.08-5.06c-.58-5.85-2.75-16.08-2.77-16.57-.68-12.91,2.15-25.73-3.57-34.91-1.23-2-2.87-2.73-4.77-3.74-4.11-2.2-22.63-7.91-32.25-9.29-5.78-.84-12.13.26-14.2,6.93-2.83,9.11,3.06,22.59,7.9,35.33C135,352.44,132.09,355,135.82,361.87Z" transform="translate(-38.05 -5.97)"></path><path class="cls-66" d="M178.43,359.06q0-.48-.09-1c-.58-5.85-2.75-16.08-2.77-16.57-.68-12.91,2.54-26-3.57-34.91-3.58-5.23-11.34-4.32-14.1,2.14-2.09,4.89-.19,11.9,2.34,23.47,1.8,8.2,5,27.39,9.89,29.4C171.78,362.25,174.59,361.36,178.43,359.06Z" transform="translate(-38.05 -5.97)"></path><path class="cls-67" d="M150.29,285.12a48.38,48.38,0,0,0,2.48,10.52c-6.36,1-15.45,1-17.29-3.55l-.38-8.9C140.18,277.14,150,285.19,150.29,285.12Z" transform="translate(-38.05 -5.97)"></path><path class="cls-68" d="M135.38,291.95c-1.76.93-3.15,3.18-2.57,4.35,3.29,7.26,17.69,6.83,26,3.37-1.14-1.91-4.23-4.34-6-4.57C147.48,296.66,137.91,296.12,135.38,291.95Z" transform="translate(-38.05 -5.97)"></path><path class="cls-41" d="M149.44,291.13c-1.9-.45-3-2.75-3.67-6.67-.58-3.32-9.94.88-9.79.66-.85-3-3.78-5.31-4.45-9.51-.93-5.88.52-12.08,6.34-15.57,10.64-6.37,22.23.71,23.87,12.3.32,2.26-1.56,3.22-1.75,5.09,0,.37.4.81.68,1.67.39,1.19-.75,8.65-2.89,11.56C156.9,291.88,150.87,291.7,149.44,291.13Z" transform="translate(-38.05 -5.97)"></path><path class="cls-69" d="M157.79,290.67c-.36.52-3.1-.07-4.11-.53,4.27-5.38-.67-9.73,3.71-14.85,2.63-3.08-.08-6.5,2.85-8.12a18.7,18.7,0,0,1,1.5,5.18c.32,2.26-1.56,3.22-1.75,5.09,0,.37.4.81.68,1.67C161.07,280.3,159.85,287.71,157.79,290.67Z" transform="translate(-38.05 -5.97)"></path><path class="cls-70" d="M151.77,283.6c.71-1.36.34-1.94-.31-1.87a4.1,4.1,0,0,0-2.53,2.35c-1.14,2.28-.36,5.46,2.1,4.58-2-.15-1.5-2.52-.71-3.92C150.86,283.81,151.58,283.18,151.77,283.6Z" transform="translate(-38.05 -5.97)"></path><path class="cls-71" d="M150.77,284.13c.42,1.11.53,1.75.3,2.08s-.58.46-1.12-.23A3.6,3.6,0,0,1,150.77,284.13Z" transform="translate(-38.05 -5.97)"></path><path class="cls-72" d="M134.66,285.56c-.65-3.38-3.38-6.51-4-10.34s-.58-9,3.27-11.93c2.46-9.47,15-10.33,23.1-7.21a6.63,6.63,0,0,1,.8,12.06,8.94,8.94,0,0,1-1.89,6.86c-1.83,2-2,2.31-2.29,4.46-.27,1.69-.88,5.8-2.16,2.15-.83-2.36-3.82-.18-4.53,2.19a10.87,10.87,0,0,1-2.09,4.12C141.73,291.83,135,287.44,134.66,285.56Z" transform="translate(-38.05 -5.97)"></path><path class="cls-73" d="M138.59,261.22c3.1-8.72,15.59-6.26,19.58-3.88s3,10.92-3.07,10.16C150.93,267,146.41,260,138.59,261.22Z" transform="translate(-38.05 -5.97)"></path><path class="cls-74" d="M201.57,308.21l3.76-.44,3.33-2.77.18-5.1-2.71-1.63c-2.85.34-4.52-.45-5.11.1S200.68,302.25,201.57,308.21Z" transform="translate(-38.05 -5.97)"></path><path class="cls-41" d="M193.44,317.14a13.49,13.49,0,0,0,1.65-2.39,9.86,9.86,0,0,1,2-6.82c2.19-3,2.5-3.38,3-5.59a15.23,15.23,0,0,1,.47-2.05c.48-1.15,1.8-.83,2.25.35a5.81,5.81,0,0,1,.11,3l-.58,1.55,4-4.56c.64-1-7.07,0-5.34-2.31a10.31,10.31,0,0,1,4-.77,21,21,0,0,1,3.5,0c1.6.13,2.22,6.7,2.25,8.41a6.88,6.88,0,0,1-.39,2.73,16.52,16.52,0,0,1-3.54,5.09c-2.6,2.32-4.93,2-6.92,6.4Z" transform="translate(-38.05 -5.97)"></path><path class="cls-34" d="M213.64,295.1c-7.09,2.86-16.84,6.49-20.32,9.55,3.82,0,14-4.59,21.07-7.55C216.16,296.37,215.3,294.43,213.64,295.1Z" transform="translate(-38.05 -5.97)"></path><path class="cls-41" d="M197.13,307.93c2.19-3,2.5-3.38,3-5.59a15.23,15.23,0,0,1,.47-2.05c.48-1.15,1.8-.83,2.25.35a5.81,5.81,0,0,1,.11,3l-.71,2.49Z" transform="translate(-38.05 -5.97)"></path><path class="cls-75" d="M179.79,329.65c3.75-5,8-10.46,10.52-12.7a8.72,8.72,0,0,1,2.81-1.26l1.76-2.07c2.58-.22,6.06,1.91,6.91,4.3L200.72,320a9,9,0,0,1-.08,4.33c-3,9-13.21,26.22-22.83,28.58a7.77,7.77,0,0,1-3.72,0c-1.77-.38-2.55-2.73-3.27-4.23-5.73-11.88-8.51-16.14-12.21-28.1-2.44-7.88-1.62-12.37,1.17-15.07,3.49-3.38,8.71-3.4,11.51.21C175.52,311.14,178.13,321.45,179.79,329.65Z" transform="translate(-38.05 -5.97)"></path><path class="cls-76" d="M218.27,406.27,191.51,424c-15.83,9.86-37.94,10.28-54.2,1.1l-30.2-17.12c-11-6.24-13.8-15.8-12.57-28.84.93-9.82,9-35.21,13.84-45.27,12.34-25.48,51.72.77,58.31,18.73a66.53,66.53,0,0,0,15.88,25.34c17.13,17.54,21.42,2,33.4-2.24,11.16-3.93,11.85,8.73,11.32,18.47C227,399.88,223.92,402.59,218.27,406.27Z" transform="translate(-38.05 -5.97)"></path><path class="cls-77" d="M218.27,406.27,191.51,424c-15.83,9.86-37.94,10.28-54.2,1.1l-30.2-17.12c-11-6.24-13.8-15.8-12.57-28.84a68.29,68.29,0,0,1,1.59-8.64c2.72,3.42,41.66,37.61,71.06,39.83,18.33,1.39,37-4.39,60.1-16.17C227,399.88,223.92,402.59,218.27,406.27Z" transform="translate(-38.05 -5.97)"></path></g></g></svg>